<?xml version="1.0" standalone="no"?>
<!DOCTYPE svg PUBLIC "-//W3C//DTD SVG 20010904//EN"
 "http://www.w3.org/TR/2001/REC-SVG-20010904/DTD/svg10.dtd">
<svg version="1.0" xmlns="http://www.w3.org/2000/svg"
 width="256.000000pt" height="256.000000pt" viewBox="0 0 256.000000 256.000000"
 preserveAspectRatio="xMidYMid meet">

<g transform="translate(0.000000,256.000000) scale(0.100000,-0.100000)"
fill="#000000" stroke="none">
<path d="M1600 2054 c-101 -98 -127 -137 -117 -176 4 -13 92 -108 196 -212
l190 -189 38 6 c32 5 55 24 141 110 101 103 102 104 102 153 l0 48 -178 178
-178 178 -47 0 c-47 0 -50 -2 -147 -96z"/>
<path d="M1032 1707 c-175 -177 -180 -186 -115 -258 l36 -40 -215 -217 c-119
-119 -220 -226 -226 -238 -6 -11 -25 -115 -43 -232 -30 -201 -31 -213 -15
-237 30 -45 50 -46 266 -14 111 16 213 35 226 42 33 17 763 734 786 772 36 60
35 62 -229 327 -231 231 -250 248 -283 248 -33 0 -48 -13 -188 -153z"/>
</g>
</svg>
