<svg width="299" height="342" viewBox="0 0 299 342" fill="none" xmlns="http://www.w3.org/2000/svg">
<path d="M77.6789 49.5708L77.6823 49.5689C96.4896 38.698 113.834 28.825 126.614 21.6842C133.002 18.1148 138.26 15.2226 141.993 13.2282C143.856 12.2328 145.358 11.451 146.438 10.9183C146.974 10.6542 147.436 10.436 147.8 10.2809C147.978 10.2053 148.174 10.1264 148.366 10.0637C148.46 10.0329 148.594 9.992 148.75 9.95956C148.846 9.93942 149.186 9.86816 149.609 9.91525C150.033 9.96231 150.402 10.1184 150.461 10.1422C150.621 10.2062 150.796 10.2842 150.968 10.3651C151.319 10.529 151.772 10.7556 152.308 11.0326C153.386 11.5896 154.886 12.3938 156.751 13.4122C160.484 15.4514 165.733 18.3786 172.11 21.9719C184.869 29.16 202.176 39.0305 220.979 49.8322L220.981 49.8338L287.237 88.0086C289.258 89.1728 290.5 91.3303 290.492 93.6623L290.233 171.208L290.233 171.213L289.845 248.781C289.833 251.093 288.594 253.225 286.591 254.38L219.648 292.966L219.647 292.967L152.577 331.552C150.568 332.707 148.097 332.706 146.089 331.549L79.1533 292.967L79.1515 292.966L12.0805 254.381C10.0745 253.227 8.83342 251.093 8.82183 248.779L8.43335 171.213L8.43334 171.208L8.17439 93.6545C8.16663 91.3293 9.40153 89.177 11.4129 88.0103L77.6789 49.5708ZM215.019 59.6331L215.019 59.6328C197.092 49.3036 180.603 39.9427 168.465 33.1662C162.394 29.777 157.42 27.0389 153.903 25.1506C152.142 24.205 150.761 23.4809 149.796 22.9968C149.571 22.8842 149.375 22.7873 149.205 22.7053C149.037 22.7876 148.842 22.8847 148.619 22.9975C147.658 23.485 146.282 24.2138 144.526 25.1649C141.02 27.0641 136.062 29.8151 130.007 33.2134C117.899 40.0083 101.44 49.3709 83.5087 59.6363L20.5837 95.9442C20.1194 96.2121 19.8333 96.7074 19.8333 97.2434V171.2L19.9626 245.019C19.9635 245.555 20.2503 246.05 20.715 246.317L83.6395 282.496C83.6404 282.496 83.6414 282.497 83.6424 282.497C101.503 292.694 117.96 301.988 130.082 308.732C136.145 312.105 141.115 314.835 144.631 316.719C146.392 317.663 147.772 318.386 148.737 318.87C148.964 318.984 149.162 319.081 149.333 319.164C149.504 319.081 149.703 318.984 149.93 318.87C150.895 318.386 152.275 317.663 154.036 316.719C157.552 314.835 162.522 312.105 168.585 308.732C180.707 301.988 197.164 292.694 215.024 282.497C215.025 282.497 215.026 282.496 215.027 282.496L277.952 246.317C278.416 246.05 278.703 245.555 278.704 245.019L278.833 171.2V171.196V97.2458C278.833 96.7093 278.547 96.2136 278.082 95.9459L215.019 59.6331Z" fill="white" stroke="white" stroke-width="5"/>
<path d="M94.0856 269.366L94.0799 269.363C79.8121 261.096 66.6755 253.461 57.038 247.825C52.2199 245.007 48.2724 242.687 45.4941 241.037C44.1061 240.212 43.0028 239.551 42.2263 239.077C41.8397 238.84 41.5228 238.644 41.2882 238.493C41.1725 238.419 41.0619 238.347 40.9671 238.282C40.966 238.281 40.9643 238.28 40.9619 238.278C40.9213 238.251 40.6956 238.098 40.4989 237.901C39.5956 236.998 39.3516 235.758 39.3041 234.926C39.2521 234.016 39.3953 232.993 39.8 232.031C40.1075 231.158 40.5911 230.341 41.1565 229.698C41.4528 229.362 41.8206 229.017 42.2582 228.74C42.6724 228.478 43.3228 228.167 44.1333 228.167C44.5124 228.167 44.8134 228.255 44.8855 228.276L44.8914 228.278C45.0121 228.313 45.117 228.352 45.1893 228.38C45.3375 228.438 45.4926 228.507 45.6351 228.574C45.9273 228.71 46.3032 228.898 46.7413 229.124C47.6243 229.581 48.8541 230.241 50.3703 231.071C53.4072 232.732 57.6487 235.102 62.6829 237.944C72.7541 243.628 86.0276 251.215 99.2483 258.834C112.469 266.453 125.643 274.107 135.515 279.925C140.449 282.833 144.568 285.288 147.457 287.052C148.899 287.932 150.052 288.651 150.853 289.173C151.247 289.43 151.588 289.66 151.844 289.847C151.964 289.935 152.117 290.051 152.259 290.178C152.323 290.236 152.451 290.353 152.582 290.514C152.647 290.593 152.759 290.739 152.867 290.94C152.955 291.105 153.167 291.537 153.167 292.133C153.167 292.802 152.91 293.388 152.825 293.582L152.82 293.594C152.685 293.902 152.515 294.224 152.346 294.526C152.002 295.136 151.564 295.827 151.147 296.453L151.087 296.544L151.019 296.628C150.433 297.361 149.602 297.873 148.551 298.019C147.647 298.145 146.721 297.979 145.848 297.728C144.1 297.224 141.592 296.078 137.894 294.15C130.418 290.253 117.326 282.751 94.0856 269.366Z" fill="white" stroke="white" stroke-width="5"/>
<path d="M99.838 76.7026L99.8322 76.706C85.9409 85.1141 73.1508 92.8794 63.7674 98.6112C59.0765 101.477 55.2329 103.836 52.5276 105.515C51.1762 106.353 50.1016 107.026 49.3452 107.509C48.9686 107.749 48.6595 107.95 48.4304 108.103C48.3174 108.179 48.209 108.253 48.1157 108.32C48.1147 108.321 48.1129 108.322 48.1106 108.324C48.0706 108.352 47.8478 108.509 47.6545 108.711C46.7835 109.621 46.5547 110.856 46.5098 111.677C46.4603 112.581 46.5964 113.601 46.9846 114.564C47.2791 115.438 47.7449 116.263 48.2948 116.916C48.582 117.257 48.942 117.61 49.3751 117.896C49.7822 118.166 50.4426 118.5 51.2778 118.5C51.6721 118.5 51.9839 118.404 52.0568 118.382L52.0631 118.38C52.1862 118.342 52.2924 118.301 52.3646 118.272C52.5127 118.211 52.6665 118.14 52.806 118.072C53.0926 117.932 53.4601 117.74 53.887 117.51C54.7479 117.045 55.9461 116.373 57.4224 115.529C60.3798 113.839 64.5098 111.428 69.4112 108.538C79.2169 102.758 92.1405 95.0409 105.012 87.2922C117.884 79.5436 130.711 71.7587 140.323 65.8413C145.127 62.8836 149.138 60.3868 151.951 58.5924C153.355 57.6973 154.479 56.9657 155.259 56.4346C155.644 56.1728 155.977 55.9382 156.227 55.7468C156.344 55.6567 156.494 55.5377 156.634 55.4072C156.698 55.3475 156.822 55.2279 156.949 55.066C157.012 54.9855 157.119 54.8396 157.221 54.641C157.306 54.4756 157.5 54.0584 157.5 53.487C157.5 52.8373 157.259 52.2616 157.176 52.0648L157.172 52.0551C157.043 51.7461 156.879 51.4207 156.714 51.1152C156.381 50.4971 155.956 49.7955 155.55 49.1588L155.492 49.0686L155.427 48.9837C154.861 48.2443 154.036 47.7012 152.965 47.5456C152.048 47.4125 151.119 47.5894 150.262 47.8468C148.545 48.363 146.092 49.5354 142.494 51.4949C135.213 55.46 122.464 63.0905 99.838 76.7026Z" fill="white" stroke="white" stroke-width="5"/>
<path d="M252.496 118.378C252.501 117.355 252.502 114.567 252.497 112.291L252.497 112.289C252.495 111.15 252.492 110.073 252.489 109.28C252.487 108.884 252.485 108.556 252.483 108.325C252.482 108.21 252.482 108.114 252.481 108.043C252.48 108.01 252.479 107.97 252.479 107.932C252.478 107.918 252.477 107.878 252.475 107.83L252.475 107.829C252.474 107.812 252.47 107.743 252.462 107.657L252.462 107.655C252.459 107.624 252.446 107.492 252.413 107.328L252.413 107.326C252.401 107.264 252.354 107.021 252.24 106.73C252.167 106.557 251.926 106.112 251.742 105.852C251.342 105.418 249.967 104.642 248.979 104.5C246.597 105.435 245.484 107.799 245.481 107.857C245.481 107.877 245.48 107.907 245.479 107.919L245.478 107.963L245.477 108.039L245.475 108.292C245.472 108.511 245.469 108.834 245.465 109.253C245.457 110.093 245.446 111.325 245.432 112.892C245.405 116.027 245.366 120.507 245.32 125.889C245.227 136.653 245.105 151.027 244.984 165.463C244.741 194.318 244.5 223.471 244.5 224.501C244.5 225.267 244.507 227.801 244.515 230.072L244.515 230.075C244.516 230.515 244.519 230.912 244.525 231.085L244.525 231.087C244.526 231.109 244.528 231.186 244.536 231.276C244.536 231.276 244.536 231.276 244.536 231.277C244.536 231.289 244.55 231.479 244.597 231.706C244.614 231.783 244.663 231.974 244.699 232.089C244.767 232.279 245.032 232.815 245.257 233.142C245.89 233.773 248.053 234.5 249.439 234.202C250.185 233.754 251.016 232.818 251.199 232.477C251.405 232.034 251.467 231.639 251.469 231.627C251.469 231.626 251.469 231.626 251.469 231.626C251.489 231.519 251.499 231.433 251.504 231.394C251.513 231.311 251.518 231.245 251.519 231.22C251.523 231.16 251.525 231.108 251.527 231.081C251.531 230.972 251.534 230.806 251.537 230.61C251.551 229.788 251.573 227.814 251.607 224.155C251.675 216.824 251.794 202.67 252.008 177.273L252.008 177.273C252.27 145.944 252.491 119.397 252.496 118.378Z" fill="white" stroke="white" stroke-width="7"/>
</svg>
