<svg width="32" height="41" viewBox="0 0 32 41" fill="none" xmlns="http://www.w3.org/2000/svg">
<path d="M16 40.9502C11.3333 39.7835 7.5 37.0752 4.5 32.8252C1.5 28.5752 0 23.9169 0 18.8502V6.9502L16 0.950195L32 6.9502V18.8502C32 23.9169 30.5 28.5752 27.5 32.8252C24.5 37.0752 20.6667 39.7835 16 40.9502ZM16 37.8502C19.8333 36.5835 22.9583 34.1919 25.375 30.6752C27.7917 27.1585 29 23.2169 29 18.8502V9.0502L16 4.1502L3 9.0502V18.8502C3 23.2169 4.20833 27.1585 6.625 30.6752C9.04167 34.1919 12.1667 36.5835 16 37.8502ZM11.5 29.0002H20.5C20.9333 29.0002 21.2917 28.8585 21.575 28.5752C21.8583 28.2919 22 27.9335 22 27.5002V20.5002C22 20.0669 21.8583 19.7085 21.575 19.4252C21.2917 19.1419 20.9333 19.0002 20.5 19.0002H20V17.0002C20 15.9002 19.6083 14.9585 18.825 14.1752C18.0417 13.3919 17.1 13.0002 16 13.0002C14.9 13.0002 13.9583 13.3919 13.175 14.1752C12.3917 14.9585 12 15.9002 12 17.0002V19.0002H11.5C11.0667 19.0002 10.7083 19.1419 10.425 19.4252C10.1417 19.7085 10 20.0669 10 20.5002V27.5002C10 27.9335 10.1417 28.2919 10.425 28.5752C10.7083 28.8585 11.0667 29.0002 11.5 29.0002ZM13.5 19.0002V17.0002C13.5 16.3335 13.75 15.7752 14.25 15.3252C14.75 14.8752 15.3333 14.6502 16 14.6502C16.6667 14.6502 17.25 14.8752 17.75 15.3252C18.25 15.7752 18.5 16.3335 18.5 17.0002V19.0002H13.5Z" fill="white"/>
</svg>
