<svg width="22" height="22" viewBox="0 0 22 22" fill="none" xmlns="http://www.w3.org/2000/svg">
<circle cx="11" cy="11" r="10.5" stroke="white" stroke-dasharray="1 1"/>
<circle cx="11" cy="11" r="6.5" stroke="white" stroke-dasharray="1 1"/>
<circle cx="11" cy="11" r="3" fill="white"/>
<circle cx="14.5" cy="5.5" r="1.5" fill="white"/>
<circle cx="4.5" cy="12.5" r="1.5" fill="white"/>
<circle cx="18.5" cy="18.5" r="1.5" fill="white"/>
<path d="M11 7L11.8981 9.76393H14.8042L12.4531 11.4721L13.3511 14.2361L11 12.5279L8.64886 14.2361L9.54692 11.4721L7.19577 9.76393H10.1019L11 7Z" fill="white"/>
<path d="M13.4689 7.85284L12.4695 10.5818L14.7561 12.3755L11.8519 12.2683L10.8525 14.9973L10.057 12.2021L7.15278 12.0949L9.56532 10.4746L8.76981 7.67943L11.0563 9.47318L13.4689 7.85284Z" fill="white"/>
</svg>
