<?xml version="1.0" encoding="UTF-8" standalone="no"?>
<!DOCTYPE svg PUBLIC "-//W3C//DTD SVG 1.1//EN"
 "http://www.w3.org/Graphics/SVG/1.1/DTD/svg11.dtd">
<!-- Generated by graphviz version 2.43.0 (0)
 -->
<!-- Title: dependency&#45;cruiser output Pages: 1 -->
<svg width="580pt" height="474pt"
 viewBox="0.00 0.00 580.00 474.00" xmlns="http://www.w3.org/2000/svg" xmlns:xlink="http://www.w3.org/1999/xlink">
<g id="graph0" class="graph" transform="scale(1 1) rotate(0) translate(4 470)">
<title>dependency&#45;cruiser output</title>
<polygon fill="white" stroke="transparent" points="-4,4 -4,-470 576,-470 576,4 -4,4"/>
<g id="clust1" class="cluster">
<title>cluster_prisma</title>
<path fill="#ffffff" stroke="black" stroke-width="2" d="M253,-8C253,-8 329,-8 329,-8 335,-8 341,-14 341,-20 341,-20 341,-48 341,-48 341,-54 335,-60 329,-60 329,-60 253,-60 253,-60 247,-60 241,-54 241,-48 241,-48 241,-20 241,-20 241,-14 247,-8 253,-8"/>
<text text-anchor="middle" x="291" y="-48.8" font-family="Helvetica,sans-Serif" font-weight="bold" font-size="9.00">prisma</text>
</g>
<g id="clust2" class="cluster">
<title>cluster_server</title>
<path fill="#ffffff" stroke="black" stroke-width="2" d="M20,-68C20,-68 552,-68 552,-68 558,-68 564,-74 564,-80 564,-80 564,-446 564,-446 564,-452 558,-458 552,-458 552,-458 20,-458 20,-458 14,-458 8,-452 8,-446 8,-446 8,-80 8,-80 8,-74 14,-68 20,-68"/>
<text text-anchor="middle" x="286" y="-446.8" font-family="Helvetica,sans-Serif" font-weight="bold" font-size="9.00">server</text>
</g>
<g id="clust3" class="cluster">
<title>cluster_server/control</title>
<path fill="#ffffff" stroke="black" stroke-width="2" d="M28,-211C28,-211 112,-211 112,-211 118,-211 124,-217 124,-223 124,-223 124,-251 124,-251 124,-257 118,-263 112,-263 112,-263 28,-263 28,-263 22,-263 16,-257 16,-251 16,-251 16,-223 16,-223 16,-217 22,-211 28,-211"/>
<text text-anchor="middle" x="70" y="-251.8" font-family="Helvetica,sans-Serif" font-weight="bold" font-size="9.00">control</text>
</g>
<g id="clust4" class="cluster">
<title>cluster_server/diContainer</title>
<path fill="#ffffff" stroke="black" stroke-width="2" d="M152,-160C152,-160 205,-160 205,-160 211,-160 217,-166 217,-172 217,-172 217,-200 217,-200 217,-206 211,-212 205,-212 205,-212 152,-212 152,-212 146,-212 140,-206 140,-200 140,-200 140,-172 140,-172 140,-166 146,-160 152,-160"/>
<text text-anchor="middle" x="178.5" y="-200.8" font-family="Helvetica,sans-Serif" font-weight="bold" font-size="9.00">diContainer</text>
</g>
<g id="clust5" class="cluster">
<title>cluster_server/minioStorage</title>
<path fill="#ffffff" stroke="black" stroke-width="2" d="M256,-230C256,-230 326,-230 326,-230 332,-230 338,-236 338,-242 338,-242 338,-270 338,-270 338,-276 332,-282 326,-282 326,-282 256,-282 256,-282 250,-282 244,-276 244,-270 244,-270 244,-242 244,-242 244,-236 250,-230 256,-230"/>
<text text-anchor="middle" x="291" y="-270.8" font-family="Helvetica,sans-Serif" font-weight="bold" font-size="9.00">minioStorage</text>
</g>
<g id="clust6" class="cluster">
<title>cluster_server/repository</title>
<path fill="#ffffff" stroke="black" stroke-width="2" d="M268,-100C268,-100 314,-100 314,-100 320,-100 326,-106 326,-112 326,-112 326,-200 326,-200 326,-206 320,-212 314,-212 314,-212 268,-212 268,-212 262,-212 256,-206 256,-200 256,-200 256,-112 256,-112 256,-106 262,-100 268,-100"/>
<text text-anchor="middle" x="291" y="-200.8" font-family="Helvetica,sans-Serif" font-weight="bold" font-size="9.00">repository</text>
</g>
<g id="clust7" class="cluster">
<title>cluster_server/service</title>
<path fill="#ffffff" stroke="black" stroke-width="2" d="M245,-290C245,-290 544,-290 544,-290 550,-290 556,-296 556,-302 556,-302 556,-360 556,-360 556,-366 550,-372 544,-372 544,-372 245,-372 245,-372 239,-372 233,-366 233,-360 233,-360 233,-302 233,-302 233,-296 239,-290 245,-290"/>
<text text-anchor="middle" x="394.5" y="-360.8" font-family="Helvetica,sans-Serif" font-weight="bold" font-size="9.00">service</text>
</g>
<g id="clust8" class="cluster">
<title>cluster_server/storage</title>
<path fill="#ffffff" stroke="black" stroke-width="2" d="M268,-380C268,-380 314,-380 314,-380 320,-380 326,-386 326,-392 326,-392 326,-420 326,-420 326,-426 320,-432 314,-432 314,-432 268,-432 268,-432 262,-432 256,-426 256,-420 256,-420 256,-392 256,-392 256,-386 262,-380 268,-380"/>
<text text-anchor="middle" x="291" y="-420.8" font-family="Helvetica,sans-Serif" font-weight="bold" font-size="9.00">storage</text>
</g>
<!-- prisma/prismaClient.ts -->
<g id="node1" class="node">
<title>prisma/prismaClient.ts</title>
<g id="a_node1"><a xlink:href="prisma/prismaClient.ts" xlink:title="prismaClient.ts">
<path fill="#ddfeff" stroke="black" d="M327,-34C327,-34 255,-34 255,-34 252,-34 249,-31 249,-28 249,-28 249,-22 249,-22 249,-19 252,-16 255,-16 255,-16 327,-16 327,-16 330,-16 333,-19 333,-22 333,-22 333,-28 333,-28 333,-31 330,-34 327,-34"/>
<text text-anchor="start" x="257" y="-22.8" font-family="Helvetica,sans-Serif" font-size="9.00">prismaClient.ts</text>
</a>
</g>
</g>
<!-- server/control/index.telefunc.ts -->
<g id="node2" class="node">
<title>server/control/index.telefunc.ts</title>
<g id="a_node2"><a xlink:href="server/control/index.telefunc.ts" xlink:title="index.telefunc.ts">
<path fill="#ddfeff" stroke="black" d="M110,-237C110,-237 30,-237 30,-237 27,-237 24,-234 24,-231 24,-231 24,-225 24,-225 24,-222 27,-219 30,-219 30,-219 110,-219 110,-219 113,-219 116,-222 116,-225 116,-225 116,-231 116,-231 116,-234 113,-237 110,-237"/>
<text text-anchor="start" x="32" y="-225.8" font-family="Helvetica,sans-Serif" font-size="9.00">index.telefunc.ts</text>
</a>
</g>
</g>
<!-- server/diContainer/index.ts -->
<g id="node3" class="node">
<title>server/diContainer/index.ts</title>
<g id="a_node3"><a xlink:href="server/diContainer/index.ts" xlink:title="index.ts">
<path fill="#ddfeff" stroke="black" d="M199,-186C199,-186 157,-186 157,-186 154,-186 151,-183 151,-180 151,-180 151,-174 151,-174 151,-171 154,-168 157,-168 157,-168 199,-168 199,-168 202,-168 205,-171 205,-174 205,-174 205,-180 205,-180 205,-183 202,-186 199,-186"/>
<text text-anchor="start" x="159.5" y="-174.8" font-family="Helvetica,sans-Serif" font-size="9.00">index.ts</text>
</a>
</g>
</g>
<!-- server/control/index.telefunc.ts&#45;&gt;server/diContainer/index.ts -->
<g id="edge1" class="edge">
<title>server/control/index.telefunc.ts&#45;&gt;server/diContainer/index.ts</title>
<path fill="none" stroke="#000000" stroke-width="2" stroke-opacity="0.200000" d="M89.95,-218.88C107.44,-210.47 133.5,-197.93 152.54,-188.77"/>
<polygon fill="#000000" fill-opacity="0.200000" stroke="#000000" stroke-width="2" stroke-opacity="0.200000" points="153.72,-190.53 158.21,-186.04 151.9,-186.75 153.72,-190.53"/>
</g>
<!-- server/service/controlInterface.ts -->
<g id="node4" class="node">
<title>server/service/controlInterface.ts</title>
<g id="a_node4"><a xlink:href="server/service/controlInterface.ts" xlink:title="controlInterface.ts">
<path fill="#ddfeff" stroke="black" d="M335,-346C335,-346 247,-346 247,-346 244,-346 241,-343 241,-340 241,-340 241,-334 241,-334 241,-331 244,-328 247,-328 247,-328 335,-328 335,-328 338,-328 341,-331 341,-334 341,-334 341,-340 341,-340 341,-343 338,-346 335,-346"/>
<text text-anchor="start" x="249" y="-334.8" font-family="Helvetica,sans-Serif" font-size="9.00">controlInterface.ts</text>
</a>
</g>
</g>
<!-- server/control/index.telefunc.ts&#45;&gt;server/service/controlInterface.ts -->
<g id="edge2" class="edge">
<title>server/control/index.telefunc.ts&#45;&gt;server/service/controlInterface.ts</title>
<path fill="none" stroke="#000000" stroke-width="2" stroke-opacity="0.200000" d="M83.82,-237.06C110.42,-255.5 174.09,-297.68 233,-322 236.54,-323.46 240.26,-324.81 244.03,-326.06"/>
<polygon fill="#000000" fill-opacity="0.200000" stroke="#000000" stroke-width="2" stroke-opacity="0.200000" points="243.64,-328.14 249.99,-327.93 244.9,-324.13 243.64,-328.14"/>
</g>
<!-- server/diContainer/index.ts&#45;&gt;prisma/prismaClient.ts -->
<g id="edge3" class="edge">
<title>server/diContainer/index.ts&#45;&gt;prisma/prismaClient.ts</title>
<path fill="none" stroke="#000000" stroke-width="2" stroke-opacity="0.200000" d="M182.29,-167.96C189.48,-149.01 207.96,-104.29 233,-73 244.03,-59.21 259.51,-46.48 271.55,-37.6"/>
<polygon fill="#000000" fill-opacity="0.200000" stroke="#000000" stroke-width="2" stroke-opacity="0.200000" points="272.84,-39.25 276.47,-34.04 270.38,-35.85 272.84,-39.25"/>
</g>
<!-- server/minioStorage/minioClient.ts -->
<g id="node5" class="node">
<title>server/minioStorage/minioClient.ts</title>
<g id="a_node5"><a xlink:href="server/minioStorage/minioClient.ts" xlink:title="minioClient.ts">
<path fill="#ddfeff" stroke="black" d="M324,-256C324,-256 258,-256 258,-256 255,-256 252,-253 252,-250 252,-250 252,-244 252,-244 252,-241 255,-238 258,-238 258,-238 324,-238 324,-238 327,-238 330,-241 330,-244 330,-244 330,-250 330,-250 330,-253 327,-256 324,-256"/>
<text text-anchor="start" x="260" y="-244.8" font-family="Helvetica,sans-Serif" font-size="9.00">minioClient.ts</text>
</a>
</g>
</g>
<!-- server/diContainer/index.ts&#45;&gt;server/minioStorage/minioClient.ts -->
<g id="edge4" class="edge">
<title>server/diContainer/index.ts&#45;&gt;server/minioStorage/minioClient.ts</title>
<path fill="none" stroke="#000000" stroke-width="2" stroke-opacity="0.200000" d="M187.38,-186.23C197.37,-196.79 215.01,-214.03 233,-225 239.78,-229.14 247.48,-232.74 254.97,-235.76"/>
<polygon fill="#000000" fill-opacity="0.200000" stroke="#000000" stroke-width="2" stroke-opacity="0.200000" points="254.29,-237.74 260.64,-237.96 255.8,-233.83 254.29,-237.74"/>
</g>
<!-- server/repository/index.ts -->
<g id="node6" class="node">
<title>server/repository/index.ts</title>
<g id="a_node6"><a xlink:href="server/repository/index.ts" xlink:title="index.ts">
<path fill="#ddfeff" stroke="black" d="M312,-126C312,-126 270,-126 270,-126 267,-126 264,-123 264,-120 264,-120 264,-114 264,-114 264,-111 267,-108 270,-108 270,-108 312,-108 312,-108 315,-108 318,-111 318,-114 318,-114 318,-120 318,-120 318,-123 315,-126 312,-126"/>
<text text-anchor="start" x="272.5" y="-114.8" font-family="Helvetica,sans-Serif" font-size="9.00">index.ts</text>
</a>
</g>
</g>
<!-- server/diContainer/index.ts&#45;&gt;server/repository/index.ts -->
<g id="edge5" class="edge">
<title>server/diContainer/index.ts&#45;&gt;server/repository/index.ts</title>
<path fill="none" stroke="#000000" stroke-width="2" stroke-opacity="0.200000" d="M187.65,-167.67C197.63,-157.45 214.99,-141.28 233,-132 240.61,-128.08 249.33,-125.12 257.63,-122.91"/>
<polygon fill="#000000" fill-opacity="0.200000" stroke="#000000" stroke-width="2" stroke-opacity="0.200000" points="258.55,-124.84 263.87,-121.36 257.54,-120.77 258.55,-124.84"/>
</g>
<!-- server/repository/post.ts -->
<g id="node7" class="node">
<title>server/repository/post.ts</title>
<g id="a_node7"><a xlink:href="server/repository/post.ts" xlink:title="post.ts">
<path fill="#ddfeff" stroke="black" d="M312,-156C312,-156 270,-156 270,-156 267,-156 264,-153 264,-150 264,-150 264,-144 264,-144 264,-141 267,-138 270,-138 270,-138 312,-138 312,-138 315,-138 318,-141 318,-144 318,-144 318,-150 318,-150 318,-153 315,-156 312,-156"/>
<text text-anchor="start" x="275.5" y="-144.8" font-family="Helvetica,sans-Serif" font-size="9.00">post.ts</text>
</a>
</g>
</g>
<!-- server/diContainer/index.ts&#45;&gt;server/repository/post.ts -->
<g id="edge6" class="edge">
<title>server/diContainer/index.ts&#45;&gt;server/repository/post.ts</title>
<path fill="none" stroke="#000000" stroke-width="2" stroke-opacity="0.200000" d="M205.07,-169.68C213.93,-167.21 223.89,-164.46 233,-162 241.03,-159.83 249.71,-157.52 257.81,-155.39"/>
<polygon fill="#000000" fill-opacity="0.200000" stroke="#000000" stroke-width="2" stroke-opacity="0.200000" points="258.6,-157.35 263.87,-153.8 257.54,-153.29 258.6,-157.35"/>
</g>
<!-- server/repository/user.ts -->
<g id="node8" class="node">
<title>server/repository/user.ts</title>
<g id="a_node8"><a xlink:href="server/repository/user.ts" xlink:title="user.ts">
<path fill="#ddfeff" stroke="black" d="M312,-186C312,-186 270,-186 270,-186 267,-186 264,-183 264,-180 264,-180 264,-174 264,-174 264,-171 267,-168 270,-168 270,-168 312,-168 312,-168 315,-168 318,-171 318,-174 318,-174 318,-180 318,-180 318,-183 315,-186 312,-186"/>
<text text-anchor="start" x="275.5" y="-174.8" font-family="Helvetica,sans-Serif" font-size="9.00">user.ts</text>
</a>
</g>
</g>
<!-- server/diContainer/index.ts&#45;&gt;server/repository/user.ts -->
<g id="edge7" class="edge">
<title>server/diContainer/index.ts&#45;&gt;server/repository/user.ts</title>
<path fill="none" stroke="#000000" stroke-width="2" stroke-opacity="0.200000" d="M205.02,-177C220.78,-177 240.99,-177 257.75,-177"/>
<polygon fill="#000000" fill-opacity="0.200000" stroke="#000000" stroke-width="2" stroke-opacity="0.200000" points="257.75,-179.1 263.75,-177 257.75,-174.9 257.75,-179.1"/>
</g>
<!-- server/service/index.ts -->
<g id="node9" class="node">
<title>server/service/index.ts</title>
<g id="a_node9"><a xlink:href="server/service/index.ts" xlink:title="index.ts">
<path fill="#ddfeff" stroke="black" d="M312,-316C312,-316 270,-316 270,-316 267,-316 264,-313 264,-310 264,-310 264,-304 264,-304 264,-301 267,-298 270,-298 270,-298 312,-298 312,-298 315,-298 318,-301 318,-304 318,-304 318,-310 318,-310 318,-313 315,-316 312,-316"/>
<text text-anchor="start" x="272.5" y="-304.8" font-family="Helvetica,sans-Serif" font-size="9.00">index.ts</text>
</a>
</g>
</g>
<!-- server/diContainer/index.ts&#45;&gt;server/service/index.ts -->
<g id="edge8" class="edge">
<title>server/diContainer/index.ts&#45;&gt;server/service/index.ts</title>
<path fill="none" stroke="#000000" stroke-width="2" stroke-opacity="0.200000" d="M181.17,-186.19C186.47,-206.74 201.98,-256.8 233,-285 240.08,-291.44 249.25,-296.07 258.16,-299.37"/>
<polygon fill="#000000" fill-opacity="0.200000" stroke="#000000" stroke-width="2" stroke-opacity="0.200000" points="257.6,-301.4 263.95,-301.35 258.96,-297.42 257.6,-301.4"/>
</g>
<!-- server/service/interface.ts -->
<g id="node10" class="node">
<title>server/service/interface.ts</title>
<g id="a_node10"><a xlink:href="server/service/interface.ts" xlink:title="interface.ts">
<path fill="#ddfeff" stroke="black" d="M416,-330C416,-330 360,-330 360,-330 357,-330 354,-327 354,-324 354,-324 354,-318 354,-318 354,-315 357,-312 360,-312 360,-312 416,-312 416,-312 419,-312 422,-315 422,-318 422,-318 422,-324 422,-324 422,-327 419,-330 416,-330"/>
<text text-anchor="start" x="362" y="-318.8" font-family="Helvetica,sans-Serif" font-size="9.00">interface.ts</text>
</a>
</g>
</g>
<!-- server/diContainer/index.ts&#45;&gt;server/service/interface.ts -->
<g id="edge9" class="edge">
<title>server/diContainer/index.ts&#45;&gt;server/service/interface.ts</title>
<path fill="none" stroke="#000000" stroke-width="2" stroke-opacity="0.200000" d="M188.85,-186.28C199.04,-195.29 215.85,-208.51 233,-215 278.17,-232.1 301.5,-199.21 341,-227 348.05,-231.96 369.93,-281.23 380.77,-306.38"/>
<polygon fill="#000000" fill-opacity="0.200000" stroke="#000000" stroke-width="2" stroke-opacity="0.200000" points="378.86,-307.25 383.16,-311.93 382.72,-305.59 378.86,-307.25"/>
</g>
<!-- server/service/repositoryInterface.ts -->
<g id="node11" class="node">
<title>server/service/repositoryInterface.ts</title>
<g id="a_node11"><a xlink:href="server/service/repositoryInterface.ts" xlink:title="repositoryInterface.ts">
<path fill="#ddfeff" stroke="black" d="M542,-316C542,-316 441,-316 441,-316 438,-316 435,-313 435,-310 435,-310 435,-304 435,-304 435,-301 438,-298 441,-298 441,-298 542,-298 542,-298 545,-298 548,-301 548,-304 548,-304 548,-310 548,-310 548,-313 545,-316 542,-316"/>
<text text-anchor="start" x="443" y="-304.8" font-family="Helvetica,sans-Serif" font-size="9.00">repositoryInterface.ts</text>
</a>
</g>
</g>
<!-- server/diContainer/index.ts&#45;&gt;server/service/repositoryInterface.ts -->
<g id="edge10" class="edge">
<title>server/diContainer/index.ts&#45;&gt;server/service/repositoryInterface.ts</title>
<path fill="none" stroke="#000000" stroke-width="2" stroke-opacity="0.200000" d="M181.22,-167.97C186.47,-148.89 201.6,-104.78 233,-87 274.77,-63.35 294.31,-75.86 341,-87 380.25,-96.37 394.98,-98.04 422,-128 466.29,-177.11 483.1,-257.86 488.4,-291.52"/>
<polygon fill="#000000" fill-opacity="0.200000" stroke="#000000" stroke-width="2" stroke-opacity="0.200000" points="486.35,-291.97 489.31,-297.6 490.5,-291.35 486.35,-291.97"/>
</g>
<!-- server/service/storageInterface.ts -->
<g id="node12" class="node">
<title>server/service/storageInterface.ts</title>
<g id="a_node12"><a xlink:href="server/service/storageInterface.ts" xlink:title="storageInterface.ts">
<path fill="#ddfeff" stroke="black" d="M536.5,-346C536.5,-346 446.5,-346 446.5,-346 443.5,-346 440.5,-343 440.5,-340 440.5,-340 440.5,-334 440.5,-334 440.5,-331 443.5,-328 446.5,-328 446.5,-328 536.5,-328 536.5,-328 539.5,-328 542.5,-331 542.5,-334 542.5,-334 542.5,-340 542.5,-340 542.5,-343 539.5,-346 536.5,-346"/>
<text text-anchor="start" x="448.5" y="-334.8" font-family="Helvetica,sans-Serif" font-size="9.00">storageInterface.ts</text>
</a>
</g>
</g>
<!-- server/diContainer/index.ts&#45;&gt;server/service/storageInterface.ts -->
<g id="edge11" class="edge">
<title>server/diContainer/index.ts&#45;&gt;server/service/storageInterface.ts</title>
<path fill="none" stroke="#000000" stroke-width="2" stroke-opacity="0.200000" d="M181.92,-167.88C188.08,-150.33 204.29,-112.26 233,-97 254.19,-85.74 321.02,-83.7 341,-97 363.55,-112.02 414.62,-304.14 435,-322 436.07,-322.94 437.19,-323.81 438.35,-324.64"/>
<polygon fill="#000000" fill-opacity="0.200000" stroke="#000000" stroke-width="2" stroke-opacity="0.200000" points="437.49,-326.57 443.7,-327.91 439.68,-322.99 437.49,-326.57"/>
</g>
<!-- server/storage/index.ts -->
<g id="node13" class="node">
<title>server/storage/index.ts</title>
<g id="a_node13"><a xlink:href="server/storage/index.ts" xlink:title="index.ts">
<path fill="#ddfeff" stroke="black" d="M312,-406C312,-406 270,-406 270,-406 267,-406 264,-403 264,-400 264,-400 264,-394 264,-394 264,-391 267,-388 270,-388 270,-388 312,-388 312,-388 315,-388 318,-391 318,-394 318,-394 318,-400 318,-400 318,-403 315,-406 312,-406"/>
<text text-anchor="start" x="272.5" y="-394.8" font-family="Helvetica,sans-Serif" font-size="9.00">index.ts</text>
</a>
</g>
</g>
<!-- server/diContainer/index.ts&#45;&gt;server/storage/index.ts -->
<g id="edge12" class="edge">
<title>server/diContainer/index.ts&#45;&gt;server/storage/index.ts</title>
<path fill="none" stroke="#000000" stroke-width="2" stroke-opacity="0.200000" d="M178.76,-186.23C178.47,-217.13 181.67,-318.14 233,-375 239.53,-382.23 248.72,-387.11 257.81,-390.39"/>
<polygon fill="#000000" fill-opacity="0.200000" stroke="#000000" stroke-width="2" stroke-opacity="0.200000" points="257.39,-392.46 263.74,-392.32 258.69,-388.46 257.39,-392.46"/>
</g>
<!-- server/service/controlInterface.ts&#45;&gt;server/service/interface.ts -->
<g id="edge16" class="edge">
<title>server/service/controlInterface.ts&#45;&gt;server/service/interface.ts</title>
<path fill="none" stroke="#000000" stroke-width="2" stroke-opacity="0.200000" d="M341.17,-328.72C343.3,-328.36 345.42,-328 347.52,-327.65"/>
<polygon fill="#000000" fill-opacity="0.200000" stroke="#000000" stroke-width="2" stroke-opacity="0.200000" points="348.18,-329.67 353.75,-326.6 347.48,-325.53 348.18,-329.67"/>
</g>
<!-- server/repository/index.ts&#45;&gt;server/service/repositoryInterface.ts -->
<g id="edge13" class="edge">
<title>server/repository/index.ts&#45;&gt;server/service/repositoryInterface.ts</title>
<path fill="none" stroke="#000000" stroke-width="2" stroke-opacity="0.200000" d="M318.12,-120.7C346.89,-126.04 392.92,-138.48 422,-166 460.04,-202.01 479.6,-263.56 486.96,-291.9"/>
<polygon fill="#000000" fill-opacity="0.200000" stroke="#000000" stroke-width="2" stroke-opacity="0.200000" points="484.93,-292.43 488.43,-297.74 489,-291.41 484.93,-292.43"/>
</g>
<!-- server/repository/post.ts&#45;&gt;server/service/repositoryInterface.ts -->
<g id="edge14" class="edge">
<title>server/repository/post.ts&#45;&gt;server/service/repositoryInterface.ts</title>
<path fill="none" stroke="#000000" stroke-width="2" stroke-opacity="0.200000" d="M318.22,-153.49C325.74,-155.76 333.84,-158.61 341,-162 380.1,-180.53 390.54,-186.29 422,-216 447.15,-239.75 469.91,-273.52 481.8,-292.54"/>
<polygon fill="#000000" fill-opacity="0.200000" stroke="#000000" stroke-width="2" stroke-opacity="0.200000" points="480.2,-293.94 485.14,-297.94 483.77,-291.73 480.2,-293.94"/>
</g>
<!-- server/repository/user.ts&#45;&gt;server/service/repositoryInterface.ts -->
<g id="edge15" class="edge">
<title>server/repository/user.ts&#45;&gt;server/service/repositoryInterface.ts</title>
<path fill="none" stroke="#000000" stroke-width="2" stroke-opacity="0.200000" d="M305.96,-186.14C340.84,-208.98 431.84,-268.59 471.53,-294.58"/>
<polygon fill="#000000" fill-opacity="0.200000" stroke="#000000" stroke-width="2" stroke-opacity="0.200000" points="470.39,-296.34 476.56,-297.87 472.69,-292.82 470.39,-296.34"/>
</g>
<!-- server/service/index.ts&#45;&gt;server/service/interface.ts -->
<g id="edge17" class="edge">
<title>server/service/index.ts&#45;&gt;server/service/interface.ts</title>
<path fill="none" stroke="#000000" stroke-width="2" stroke-opacity="0.200000" d="M318.21,-310.86C327.31,-312.2 337.72,-313.74 347.64,-315.2"/>
<polygon fill="#000000" fill-opacity="0.200000" stroke="#000000" stroke-width="2" stroke-opacity="0.200000" points="347.49,-317.3 353.74,-316.1 348.11,-313.15 347.49,-317.3"/>
</g>
<!-- server/service/index.ts&#45;&gt;server/service/repositoryInterface.ts -->
<g id="edge18" class="edge">
<title>server/service/index.ts&#45;&gt;server/service/repositoryInterface.ts</title>
<path fill="none" stroke="#000000" stroke-width="2" stroke-opacity="0.200000" d="M318.24,-306.48C329.28,-306.29 342.27,-306.09 354,-306 384.22,-305.76 391.78,-305.78 422,-306 424.21,-306.02 426.46,-306.04 428.74,-306.06"/>
<polygon fill="#000000" fill-opacity="0.200000" stroke="#000000" stroke-width="2" stroke-opacity="0.200000" points="428.78,-308.16 434.8,-306.12 428.82,-303.96 428.78,-308.16"/>
</g>
<!-- server/service/index.ts&#45;&gt;server/service/storageInterface.ts -->
<g id="edge19" class="edge">
<title>server/service/index.ts&#45;&gt;server/service/storageInterface.ts</title>
<path fill="none" stroke="#000000" stroke-width="2" stroke-opacity="0.200000" d="M318.02,-312.23C325.79,-314.49 334.06,-317.65 341,-322 348.2,-326.51 346.23,-332.58 354,-336 378.8,-346.92 408.67,-348.29 434.14,-346.45"/>
<polygon fill="#000000" fill-opacity="0.200000" stroke="#000000" stroke-width="2" stroke-opacity="0.200000" points="434.37,-348.54 440.18,-345.95 434.03,-344.36 434.37,-348.54"/>
</g>
<!-- server/service/interface.ts&#45;&gt;server/service/repositoryInterface.ts -->
<g id="edge20" class="edge">
<title>server/service/interface.ts&#45;&gt;server/service/repositoryInterface.ts</title>
<path fill="none" stroke="#000000" stroke-width="2" stroke-opacity="0.200000" d="M422.23,-316.42C424.38,-316.12 426.58,-315.82 428.81,-315.51"/>
<polygon fill="#000000" fill-opacity="0.200000" stroke="#000000" stroke-width="2" stroke-opacity="0.200000" points="429.11,-317.59 434.76,-314.69 428.53,-313.43 429.11,-317.59"/>
</g>
<!-- server/service/interface.ts&#45;&gt;server/service/storageInterface.ts -->
<g id="edge21" class="edge">
<title>server/service/interface.ts&#45;&gt;server/service/storageInterface.ts</title>
<path fill="none" stroke="#000000" stroke-width="2" stroke-opacity="0.200000" d="M422.23,-326.24C426.12,-326.85 430.16,-327.49 434.25,-328.13"/>
<polygon fill="#000000" fill-opacity="0.200000" stroke="#000000" stroke-width="2" stroke-opacity="0.200000" points="434.01,-330.22 440.26,-329.08 434.66,-326.07 434.01,-330.22"/>
</g>
<!-- server/storage/index.ts&#45;&gt;server/service/storageInterface.ts -->
<g id="edge22" class="edge">
<title>server/storage/index.ts&#45;&gt;server/service/storageInterface.ts</title>
<path fill="none" stroke="#000000" stroke-width="2" stroke-opacity="0.200000" d="M318.36,-389.03C353.3,-378.47 415.09,-359.79 454.36,-347.92"/>
<polygon fill="#000000" fill-opacity="0.200000" stroke="#000000" stroke-width="2" stroke-opacity="0.200000" points="455.32,-349.83 460.46,-346.08 454.11,-345.81 455.32,-349.83"/>
</g>
</g>
</svg>
