<?xml version="1.0" encoding="UTF-8" standalone="no"?>
<!DOCTYPE svg PUBLIC "-//W3C//DTD SVG 1.1//EN"
 "http://www.w3.org/Graphics/SVG/1.1/DTD/svg11.dtd">
<!-- Generated by graphviz version 2.43.0 (0)
 -->
<!-- Title: dependency&#45;cruiser output Pages: 1 -->
<svg width="580pt" height="350pt"
 viewBox="0.00 0.00 580.00 350.00" xmlns="http://www.w3.org/2000/svg" xmlns:xlink="http://www.w3.org/1999/xlink">
<g id="graph0" class="graph" transform="scale(1 1) rotate(0) translate(4 346)">
<title>dependency&#45;cruiser output</title>
<polygon fill="white" stroke="transparent" points="-4,4 -4,-346 576,-346 576,4 -4,4"/>
<g id="clust1" class="cluster">
<title>cluster_server</title>
<path fill="#ffffff" stroke="black" stroke-width="2" d="M20,-8C20,-8 552,-8 552,-8 558,-8 564,-14 564,-20 564,-20 564,-322 564,-322 564,-328 558,-334 552,-334 552,-334 20,-334 20,-334 14,-334 8,-328 8,-322 8,-322 8,-20 8,-20 8,-14 14,-8 20,-8"/>
<text text-anchor="middle" x="286" y="-322.8" font-family="Helvetica,sans-Serif" font-weight="bold" font-size="9.00">server</text>
</g>
<g id="clust2" class="cluster">
<title>cluster_server/control</title>
<path fill="#ffffff" stroke="black" stroke-width="2" d="M28,-157C28,-157 112,-157 112,-157 118,-157 124,-163 124,-169 124,-169 124,-197 124,-197 124,-203 118,-209 112,-209 112,-209 28,-209 28,-209 22,-209 16,-203 16,-197 16,-197 16,-169 16,-169 16,-163 22,-157 28,-157"/>
<text text-anchor="middle" x="70" y="-197.8" font-family="Helvetica,sans-Serif" font-weight="bold" font-size="9.00">control</text>
</g>
<g id="clust3" class="cluster">
<title>cluster_server/diContainer</title>
<path fill="#ffffff" stroke="black" stroke-width="2" d="M152,-130C152,-130 205,-130 205,-130 211,-130 217,-136 217,-142 217,-142 217,-170 217,-170 217,-176 211,-182 205,-182 205,-182 152,-182 152,-182 146,-182 140,-176 140,-170 140,-170 140,-142 140,-142 140,-136 146,-130 152,-130"/>
<text text-anchor="middle" x="178.5" y="-170.8" font-family="Helvetica,sans-Serif" font-weight="bold" font-size="9.00">diContainer</text>
</g>
<g id="clust4" class="cluster">
<title>cluster_server/repository</title>
<path fill="#ffffff" stroke="black" stroke-width="2" d="M268,-26C268,-26 314,-26 314,-26 320,-26 326,-32 326,-38 326,-38 326,-126 326,-126 326,-132 320,-138 314,-138 314,-138 268,-138 268,-138 262,-138 256,-132 256,-126 256,-126 256,-38 256,-38 256,-32 262,-26 268,-26"/>
<text text-anchor="middle" x="291" y="-126.8" font-family="Helvetica,sans-Serif" font-weight="bold" font-size="9.00">repository</text>
</g>
<g id="clust5" class="cluster">
<title>cluster_server/service</title>
<path fill="#ffffff" stroke="black" stroke-width="2" d="M245,-166C245,-166 544,-166 544,-166 550,-166 556,-172 556,-178 556,-178 556,-236 556,-236 556,-242 550,-248 544,-248 544,-248 245,-248 245,-248 239,-248 233,-242 233,-236 233,-236 233,-178 233,-178 233,-172 239,-166 245,-166"/>
<text text-anchor="middle" x="394.5" y="-236.8" font-family="Helvetica,sans-Serif" font-weight="bold" font-size="9.00">service</text>
</g>
<g id="clust6" class="cluster">
<title>cluster_server/storage</title>
<path fill="#ffffff" stroke="black" stroke-width="2" d="M268,-256C268,-256 314,-256 314,-256 320,-256 326,-262 326,-268 326,-268 326,-296 326,-296 326,-302 320,-308 314,-308 314,-308 268,-308 268,-308 262,-308 256,-302 256,-296 256,-296 256,-268 256,-268 256,-262 262,-256 268,-256"/>
<text text-anchor="middle" x="291" y="-296.8" font-family="Helvetica,sans-Serif" font-weight="bold" font-size="9.00">storage</text>
</g>
<!-- server/control/index.telefunc.ts -->
<g id="node1" class="node">
<title>server/control/index.telefunc.ts</title>
<g id="a_node1"><a xlink:href="server/control/index.telefunc.ts" xlink:title="index.telefunc.ts">
<path fill="#ddfeff" stroke="black" d="M110,-183C110,-183 30,-183 30,-183 27,-183 24,-180 24,-177 24,-177 24,-171 24,-171 24,-168 27,-165 30,-165 30,-165 110,-165 110,-165 113,-165 116,-168 116,-171 116,-171 116,-177 116,-177 116,-180 113,-183 110,-183"/>
<text text-anchor="start" x="32" y="-171.8" font-family="Helvetica,sans-Serif" font-size="9.00">index.telefunc.ts</text>
</a>
</g>
</g>
<!-- server/diContainer/index.ts -->
<g id="node2" class="node">
<title>server/diContainer/index.ts</title>
<g id="a_node2"><a xlink:href="server/diContainer/index.ts" xlink:title="index.ts">
<path fill="#ddfeff" stroke="black" d="M199,-156C199,-156 157,-156 157,-156 154,-156 151,-153 151,-150 151,-150 151,-144 151,-144 151,-141 154,-138 157,-138 157,-138 199,-138 199,-138 202,-138 205,-141 205,-144 205,-144 205,-150 205,-150 205,-153 202,-156 199,-156"/>
<text text-anchor="start" x="159.5" y="-144.8" font-family="Helvetica,sans-Serif" font-size="9.00">index.ts</text>
</a>
</g>
</g>
<!-- server/control/index.telefunc.ts&#45;&gt;server/diContainer/index.ts -->
<g id="edge1" class="edge">
<title>server/control/index.telefunc.ts&#45;&gt;server/diContainer/index.ts</title>
<path fill="none" stroke="#000000" stroke-width="2" stroke-opacity="0.200000" d="M106.59,-164.93C118.88,-161.8 132.58,-158.31 144.6,-155.25"/>
<polygon fill="#000000" fill-opacity="0.200000" stroke="#000000" stroke-width="2" stroke-opacity="0.200000" points="145.43,-157.21 150.72,-153.69 144.39,-153.14 145.43,-157.21"/>
</g>
<!-- server/service/controlInterface.ts -->
<g id="node3" class="node">
<title>server/service/controlInterface.ts</title>
<g id="a_node3"><a xlink:href="server/service/controlInterface.ts" xlink:title="controlInterface.ts">
<path fill="#ddfeff" stroke="black" d="M335,-222C335,-222 247,-222 247,-222 244,-222 241,-219 241,-216 241,-216 241,-210 241,-210 241,-207 244,-204 247,-204 247,-204 335,-204 335,-204 338,-204 341,-207 341,-210 341,-210 341,-216 341,-216 341,-219 338,-222 335,-222"/>
<text text-anchor="start" x="249" y="-210.8" font-family="Helvetica,sans-Serif" font-size="9.00">controlInterface.ts</text>
</a>
</g>
</g>
<!-- server/control/index.telefunc.ts&#45;&gt;server/service/controlInterface.ts -->
<g id="edge2" class="edge">
<title>server/control/index.telefunc.ts&#45;&gt;server/service/controlInterface.ts</title>
<path fill="none" stroke="#000000" stroke-width="2" stroke-opacity="0.200000" d="M116.11,-182.03C150.44,-188.15 197.86,-196.59 234.51,-203.12"/>
<polygon fill="#000000" fill-opacity="0.200000" stroke="#000000" stroke-width="2" stroke-opacity="0.200000" points="234.48,-205.25 240.76,-204.23 235.22,-201.11 234.48,-205.25"/>
</g>
<!-- server/repository/index.ts -->
<g id="node4" class="node">
<title>server/repository/index.ts</title>
<g id="a_node4"><a xlink:href="server/repository/index.ts" xlink:title="index.ts">
<path fill="#ddfeff" stroke="black" d="M312,-112C312,-112 270,-112 270,-112 267,-112 264,-109 264,-106 264,-106 264,-100 264,-100 264,-97 267,-94 270,-94 270,-94 312,-94 312,-94 315,-94 318,-97 318,-100 318,-100 318,-106 318,-106 318,-109 315,-112 312,-112"/>
<text text-anchor="start" x="272.5" y="-100.8" font-family="Helvetica,sans-Serif" font-size="9.00">index.ts</text>
</a>
</g>
</g>
<!-- server/diContainer/index.ts&#45;&gt;server/repository/index.ts -->
<g id="edge3" class="edge">
<title>server/diContainer/index.ts&#45;&gt;server/repository/index.ts</title>
<path fill="none" stroke="#000000" stroke-width="2" stroke-opacity="0.200000" d="M201.73,-137.99C218.83,-131.21 242.38,-121.87 260.86,-114.55"/>
<polygon fill="#000000" fill-opacity="0.200000" stroke="#000000" stroke-width="2" stroke-opacity="0.200000" points="262.11,-116.31 266.92,-112.15 260.57,-112.41 262.11,-116.31"/>
</g>
<!-- server/repository/post.ts -->
<g id="node5" class="node">
<title>server/repository/post.ts</title>
<g id="a_node5"><a xlink:href="server/repository/post.ts" xlink:title="post.ts">
<path fill="#ddfeff" stroke="black" d="M312,-52C312,-52 270,-52 270,-52 267,-52 264,-49 264,-46 264,-46 264,-40 264,-40 264,-37 267,-34 270,-34 270,-34 312,-34 312,-34 315,-34 318,-37 318,-40 318,-40 318,-46 318,-46 318,-49 315,-52 312,-52"/>
<text text-anchor="start" x="275.5" y="-40.8" font-family="Helvetica,sans-Serif" font-size="9.00">post.ts</text>
</a>
</g>
</g>
<!-- server/diContainer/index.ts&#45;&gt;server/repository/post.ts -->
<g id="edge4" class="edge">
<title>server/diContainer/index.ts&#45;&gt;server/repository/post.ts</title>
<path fill="none" stroke="#000000" stroke-width="2" stroke-opacity="0.200000" d="M181.93,-137.84C188.21,-119.69 204.76,-79.09 233,-58 240.19,-52.63 249.15,-49.18 257.82,-46.96"/>
<polygon fill="#000000" fill-opacity="0.200000" stroke="#000000" stroke-width="2" stroke-opacity="0.200000" points="258.37,-48.99 263.75,-45.61 257.44,-44.89 258.37,-48.99"/>
</g>
<!-- server/repository/user.ts -->
<g id="node6" class="node">
<title>server/repository/user.ts</title>
<g id="a_node6"><a xlink:href="server/repository/user.ts" xlink:title="user.ts">
<path fill="#ddfeff" stroke="black" d="M312,-82C312,-82 270,-82 270,-82 267,-82 264,-79 264,-76 264,-76 264,-70 264,-70 264,-67 267,-64 270,-64 270,-64 312,-64 312,-64 315,-64 318,-67 318,-70 318,-70 318,-76 318,-76 318,-79 315,-82 312,-82"/>
<text text-anchor="start" x="275.5" y="-70.8" font-family="Helvetica,sans-Serif" font-size="9.00">user.ts</text>
</a>
</g>
</g>
<!-- server/diContainer/index.ts&#45;&gt;server/repository/user.ts -->
<g id="edge5" class="edge">
<title>server/diContainer/index.ts&#45;&gt;server/repository/user.ts</title>
<path fill="none" stroke="#000000" stroke-width="2" stroke-opacity="0.200000" d="M184.8,-137.9C193.6,-124.84 211.61,-100.92 233,-88 240.4,-83.53 249.12,-80.38 257.49,-78.16"/>
<polygon fill="#000000" fill-opacity="0.200000" stroke="#000000" stroke-width="2" stroke-opacity="0.200000" points="258.45,-80.09 263.79,-76.64 257.46,-76 258.45,-80.09"/>
</g>
<!-- server/service/index.ts -->
<g id="node7" class="node">
<title>server/service/index.ts</title>
<g id="a_node7"><a xlink:href="server/service/index.ts" xlink:title="index.ts">
<path fill="#ddfeff" stroke="black" d="M312,-192C312,-192 270,-192 270,-192 267,-192 264,-189 264,-186 264,-186 264,-180 264,-180 264,-177 267,-174 270,-174 270,-174 312,-174 312,-174 315,-174 318,-177 318,-180 318,-180 318,-186 318,-186 318,-189 315,-192 312,-192"/>
<text text-anchor="start" x="272.5" y="-180.8" font-family="Helvetica,sans-Serif" font-size="9.00">index.ts</text>
</a>
</g>
</g>
<!-- server/diContainer/index.ts&#45;&gt;server/service/index.ts -->
<g id="edge6" class="edge">
<title>server/diContainer/index.ts&#45;&gt;server/service/index.ts</title>
<path fill="none" stroke="#000000" stroke-width="2" stroke-opacity="0.200000" d="M205.07,-155.78C213.92,-158.74 223.88,-162.04 233,-165 241.02,-167.6 249.7,-170.37 257.8,-172.93"/>
<polygon fill="#000000" fill-opacity="0.200000" stroke="#000000" stroke-width="2" stroke-opacity="0.200000" points="257.51,-175.04 263.87,-174.84 258.78,-171.04 257.51,-175.04"/>
</g>
<!-- server/service/interface.ts -->
<g id="node8" class="node">
<title>server/service/interface.ts</title>
<g id="a_node8"><a xlink:href="server/service/interface.ts" xlink:title="interface.ts">
<path fill="#ddfeff" stroke="black" d="M416,-206C416,-206 360,-206 360,-206 357,-206 354,-203 354,-200 354,-200 354,-194 354,-194 354,-191 357,-188 360,-188 360,-188 416,-188 416,-188 419,-188 422,-191 422,-194 422,-194 422,-200 422,-200 422,-203 419,-206 416,-206"/>
<text text-anchor="start" x="362" y="-194.8" font-family="Helvetica,sans-Serif" font-size="9.00">interface.ts</text>
</a>
</g>
</g>
<!-- server/diContainer/index.ts&#45;&gt;server/service/interface.ts -->
<g id="edge7" class="edge">
<title>server/diContainer/index.ts&#45;&gt;server/service/interface.ts</title>
<path fill="none" stroke="#000000" stroke-width="2" stroke-opacity="0.200000" d="M205.05,-149C244.29,-152.25 316.59,-159.21 341,-168 351.59,-171.81 362.3,-178.37 370.71,-184.28"/>
<polygon fill="#000000" fill-opacity="0.200000" stroke="#000000" stroke-width="2" stroke-opacity="0.200000" points="369.54,-186.03 375.63,-187.85 372.01,-182.63 369.54,-186.03"/>
</g>
<!-- server/service/repositoryInterface.ts -->
<g id="node9" class="node">
<title>server/service/repositoryInterface.ts</title>
<g id="a_node9"><a xlink:href="server/service/repositoryInterface.ts" xlink:title="repositoryInterface.ts">
<path fill="#ddfeff" stroke="black" d="M542,-192C542,-192 441,-192 441,-192 438,-192 435,-189 435,-186 435,-186 435,-180 435,-180 435,-177 438,-174 441,-174 441,-174 542,-174 542,-174 545,-174 548,-177 548,-180 548,-180 548,-186 548,-186 548,-189 545,-192 542,-192"/>
<text text-anchor="start" x="443" y="-180.8" font-family="Helvetica,sans-Serif" font-size="9.00">repositoryInterface.ts</text>
</a>
</g>
</g>
<!-- server/diContainer/index.ts&#45;&gt;server/service/repositoryInterface.ts -->
<g id="edge8" class="edge">
<title>server/diContainer/index.ts&#45;&gt;server/service/repositoryInterface.ts</title>
<path fill="none" stroke="#000000" stroke-width="2" stroke-opacity="0.200000" d="M205.2,-146.42C237.32,-146.02 293.36,-146.37 341,-152 377.99,-156.37 419.41,-165.28 449.25,-172.43"/>
<polygon fill="#000000" fill-opacity="0.200000" stroke="#000000" stroke-width="2" stroke-opacity="0.200000" points="449.12,-174.56 455.44,-173.93 450.1,-170.48 449.12,-174.56"/>
</g>
<!-- server/service/storageInterface.ts -->
<g id="node10" class="node">
<title>server/service/storageInterface.ts</title>
<g id="a_node10"><a xlink:href="server/service/storageInterface.ts" xlink:title="storageInterface.ts">
<path fill="#ddfeff" stroke="black" d="M536.5,-222C536.5,-222 446.5,-222 446.5,-222 443.5,-222 440.5,-219 440.5,-216 440.5,-216 440.5,-210 440.5,-210 440.5,-207 443.5,-204 446.5,-204 446.5,-204 536.5,-204 536.5,-204 539.5,-204 542.5,-207 542.5,-210 542.5,-210 542.5,-216 542.5,-216 542.5,-219 539.5,-222 536.5,-222"/>
<text text-anchor="start" x="448.5" y="-210.8" font-family="Helvetica,sans-Serif" font-size="9.00">storageInterface.ts</text>
</a>
</g>
</g>
<!-- server/diContainer/index.ts&#45;&gt;server/service/storageInterface.ts -->
<g id="edge9" class="edge">
<title>server/diContainer/index.ts&#45;&gt;server/service/storageInterface.ts</title>
<path fill="none" stroke="#000000" stroke-width="2" stroke-opacity="0.200000" d="M179.75,-137.69C182.23,-113.65 192.54,-49.51 233,-23 273.15,3.31 299.8,1.63 341,-23 359.94,-34.33 417.71,-184.28 435,-198 436.27,-199 437.59,-199.94 438.97,-200.82"/>
<polygon fill="#000000" fill-opacity="0.200000" stroke="#000000" stroke-width="2" stroke-opacity="0.200000" points="438.23,-202.81 444.49,-203.89 440.27,-199.14 438.23,-202.81"/>
</g>
<!-- server/storage/index.ts -->
<g id="node11" class="node">
<title>server/storage/index.ts</title>
<g id="a_node11"><a xlink:href="server/storage/index.ts" xlink:title="index.ts">
<path fill="#ddfeff" stroke="black" d="M312,-282C312,-282 270,-282 270,-282 267,-282 264,-279 264,-276 264,-276 264,-270 264,-270 264,-267 267,-264 270,-264 270,-264 312,-264 312,-264 315,-264 318,-267 318,-270 318,-270 318,-276 318,-276 318,-279 315,-282 312,-282"/>
<text text-anchor="start" x="272.5" y="-270.8" font-family="Helvetica,sans-Serif" font-size="9.00">index.ts</text>
</a>
</g>
</g>
<!-- server/diContainer/index.ts&#45;&gt;server/storage/index.ts -->
<g id="edge10" class="edge">
<title>server/diContainer/index.ts&#45;&gt;server/storage/index.ts</title>
<path fill="none" stroke="#000000" stroke-width="2" stroke-opacity="0.200000" d="M181.35,-156.16C186.94,-176.13 202.83,-224 233,-251 240.07,-257.33 249.15,-261.92 257.98,-265.21"/>
<polygon fill="#000000" fill-opacity="0.200000" stroke="#000000" stroke-width="2" stroke-opacity="0.200000" points="257.37,-267.22 263.72,-267.2 258.74,-263.25 257.37,-267.22"/>
</g>
<!-- server/service/controlInterface.ts&#45;&gt;server/service/interface.ts -->
<g id="edge14" class="edge">
<title>server/service/controlInterface.ts&#45;&gt;server/service/interface.ts</title>
<path fill="none" stroke="#000000" stroke-width="2" stroke-opacity="0.200000" d="M341.17,-204.72C343.3,-204.36 345.42,-204 347.52,-203.65"/>
<polygon fill="#000000" fill-opacity="0.200000" stroke="#000000" stroke-width="2" stroke-opacity="0.200000" points="348.18,-205.67 353.75,-202.6 347.48,-201.53 348.18,-205.67"/>
</g>
<!-- server/repository/index.ts&#45;&gt;server/service/repositoryInterface.ts -->
<g id="edge11" class="edge">
<title>server/repository/index.ts&#45;&gt;server/service/repositoryInterface.ts</title>
<path fill="none" stroke="#000000" stroke-width="2" stroke-opacity="0.200000" d="M318.04,-109.13C344.74,-115.84 387.19,-127.72 422,-143 439.7,-150.77 458.59,-162.04 472.03,-170.64"/>
<polygon fill="#000000" fill-opacity="0.200000" stroke="#000000" stroke-width="2" stroke-opacity="0.200000" points="470.91,-172.42 477.09,-173.91 473.19,-168.89 470.91,-172.42"/>
</g>
<!-- server/repository/post.ts&#45;&gt;server/service/repositoryInterface.ts -->
<g id="edge12" class="edge">
<title>server/repository/post.ts&#45;&gt;server/service/repositoryInterface.ts</title>
<path fill="none" stroke="#000000" stroke-width="2" stroke-opacity="0.200000" d="M318.22,-46.36C346.24,-51.04 390.83,-61.73 422,-85 452.11,-107.47 473.88,-147.15 484.06,-168.48"/>
<polygon fill="#000000" fill-opacity="0.200000" stroke="#000000" stroke-width="2" stroke-opacity="0.200000" points="482.18,-169.42 486.62,-173.97 485.99,-167.65 482.18,-169.42"/>
</g>
<!-- server/repository/user.ts&#45;&gt;server/service/repositoryInterface.ts -->
<g id="edge13" class="edge">
<title>server/repository/user.ts&#45;&gt;server/service/repositoryInterface.ts</title>
<path fill="none" stroke="#000000" stroke-width="2" stroke-opacity="0.200000" d="M318.21,-77.89C345.62,-83.84 389.14,-95.69 422,-116 445.39,-130.46 467.14,-154.18 479.61,-169.18"/>
<polygon fill="#000000" fill-opacity="0.200000" stroke="#000000" stroke-width="2" stroke-opacity="0.200000" points="478.05,-170.58 483.47,-173.9 481.3,-167.93 478.05,-170.58"/>
</g>
<!-- server/service/index.ts&#45;&gt;server/service/interface.ts -->
<g id="edge15" class="edge">
<title>server/service/index.ts&#45;&gt;server/service/interface.ts</title>
<path fill="none" stroke="#000000" stroke-width="2" stroke-opacity="0.200000" d="M318.21,-186.86C327.31,-188.2 337.72,-189.74 347.64,-191.2"/>
<polygon fill="#000000" fill-opacity="0.200000" stroke="#000000" stroke-width="2" stroke-opacity="0.200000" points="347.49,-193.3 353.74,-192.1 348.11,-189.15 347.49,-193.3"/>
</g>
<!-- server/service/index.ts&#45;&gt;server/service/repositoryInterface.ts -->
<g id="edge16" class="edge">
<title>server/service/index.ts&#45;&gt;server/service/repositoryInterface.ts</title>
<path fill="none" stroke="#000000" stroke-width="2" stroke-opacity="0.200000" d="M318.24,-182.48C329.28,-182.29 342.27,-182.09 354,-182 384.22,-181.76 391.78,-181.78 422,-182 424.21,-182.02 426.46,-182.04 428.74,-182.06"/>
<polygon fill="#000000" fill-opacity="0.200000" stroke="#000000" stroke-width="2" stroke-opacity="0.200000" points="428.78,-184.16 434.8,-182.12 428.82,-179.96 428.78,-184.16"/>
</g>
<!-- server/service/index.ts&#45;&gt;server/service/storageInterface.ts -->
<g id="edge17" class="edge">
<title>server/service/index.ts&#45;&gt;server/service/storageInterface.ts</title>
<path fill="none" stroke="#000000" stroke-width="2" stroke-opacity="0.200000" d="M318.02,-188.23C325.79,-190.49 334.06,-193.65 341,-198 348.2,-202.51 346.23,-208.58 354,-212 378.8,-222.92 408.67,-224.29 434.14,-222.45"/>
<polygon fill="#000000" fill-opacity="0.200000" stroke="#000000" stroke-width="2" stroke-opacity="0.200000" points="434.37,-224.54 440.18,-221.95 434.03,-220.36 434.37,-224.54"/>
</g>
<!-- server/service/interface.ts&#45;&gt;server/service/repositoryInterface.ts -->
<g id="edge18" class="edge">
<title>server/service/interface.ts&#45;&gt;server/service/repositoryInterface.ts</title>
<path fill="none" stroke="#000000" stroke-width="2" stroke-opacity="0.200000" d="M422.23,-192.42C424.38,-192.12 426.58,-191.82 428.81,-191.51"/>
<polygon fill="#000000" fill-opacity="0.200000" stroke="#000000" stroke-width="2" stroke-opacity="0.200000" points="429.11,-193.59 434.76,-190.69 428.53,-189.43 429.11,-193.59"/>
</g>
<!-- server/service/interface.ts&#45;&gt;server/service/storageInterface.ts -->
<g id="edge19" class="edge">
<title>server/service/interface.ts&#45;&gt;server/service/storageInterface.ts</title>
<path fill="none" stroke="#000000" stroke-width="2" stroke-opacity="0.200000" d="M422.23,-202.24C426.12,-202.85 430.16,-203.49 434.25,-204.13"/>
<polygon fill="#000000" fill-opacity="0.200000" stroke="#000000" stroke-width="2" stroke-opacity="0.200000" points="434.01,-206.22 440.26,-205.08 434.66,-202.07 434.01,-206.22"/>
</g>
<!-- server/storage/index.ts&#45;&gt;server/service/storageInterface.ts -->
<g id="edge20" class="edge">
<title>server/storage/index.ts&#45;&gt;server/service/storageInterface.ts</title>
<path fill="none" stroke="#000000" stroke-width="2" stroke-opacity="0.200000" d="M318.36,-265.03C353.3,-254.47 415.09,-235.79 454.36,-223.92"/>
<polygon fill="#000000" fill-opacity="0.200000" stroke="#000000" stroke-width="2" stroke-opacity="0.200000" points="455.32,-225.83 460.46,-222.08 454.11,-221.81 455.32,-225.83"/>
</g>
</g>
</svg>
