<?xml version="1.0" encoding="UTF-8" standalone="no"?>
<!DOCTYPE svg PUBLIC "-//W3C//DTD SVG 1.1//EN"
 "http://www.w3.org/Graphics/SVG/1.1/DTD/svg11.dtd">
<!-- Generated by graphviz version 2.43.0 (0)
 -->
<!-- Title: dependency&#45;cruiser output Pages: 1 -->
<svg width="366pt" height="366pt"
 viewBox="0.00 0.00 366.00 366.00" xmlns="http://www.w3.org/2000/svg" xmlns:xlink="http://www.w3.org/1999/xlink">
<g id="graph0" class="graph" transform="scale(1 1) rotate(0) translate(4 362)">
<title>dependency&#45;cruiser output</title>
<polygon fill="white" stroke="transparent" points="-4,4 -4,-362 362,-362 362,4 -4,4"/>
<g id="clust1" class="cluster">
<title>cluster_server</title>
<path fill="#ffffff" stroke="black" stroke-width="2" d="M20,-8C20,-8 338,-8 338,-8 344,-8 350,-14 350,-20 350,-20 350,-338 350,-338 350,-344 344,-350 338,-350 338,-350 20,-350 20,-350 14,-350 8,-344 8,-338 8,-338 8,-20 8,-20 8,-14 14,-8 20,-8"/>
<text text-anchor="middle" x="179" y="-338.8" font-family="Helvetica,sans-Serif" font-weight="bold" font-size="9.00">server</text>
</g>
<g id="clust2" class="cluster">
<title>cluster_server/auth</title>
<path fill="#ffffff" stroke="black" stroke-width="2" d="M277,-49C277,-49 323,-49 323,-49 329,-49 335,-55 335,-61 335,-61 335,-89 335,-89 335,-95 329,-101 323,-101 323,-101 277,-101 277,-101 271,-101 265,-95 265,-89 265,-89 265,-61 265,-61 265,-55 271,-49 277,-49"/>
<text text-anchor="middle" x="300" y="-89.8" font-family="Helvetica,sans-Serif" font-weight="bold" font-size="9.00">auth</text>
</g>
<g id="clust3" class="cluster">
<title>cluster_server/chat</title>
<path fill="#ffffff" stroke="black" stroke-width="2" d="M28,-272C28,-272 238,-272 238,-272 244,-272 250,-278 250,-284 250,-284 250,-312 250,-312 250,-318 244,-324 238,-324 238,-324 28,-324 28,-324 22,-324 16,-318 16,-312 16,-312 16,-284 16,-284 16,-278 22,-272 28,-272"/>
<text text-anchor="middle" x="133" y="-312.8" font-family="Helvetica,sans-Serif" font-weight="bold" font-size="9.00">chat</text>
</g>
<g id="clust4" class="cluster">
<title>cluster_server/control</title>
<path fill="#ffffff" stroke="black" stroke-width="2" d="M270,-224C270,-224 330,-224 330,-224 336,-224 342,-230 342,-236 342,-236 342,-264 342,-264 342,-270 336,-276 330,-276 330,-276 270,-276 270,-276 264,-276 258,-270 258,-264 258,-264 258,-236 258,-236 258,-230 264,-224 270,-224"/>
<text text-anchor="middle" x="300" y="-264.8" font-family="Helvetica,sans-Serif" font-weight="bold" font-size="9.00">control</text>
</g>
<g id="clust5" class="cluster">
<title>cluster_server/diContainer</title>
<path fill="#ffffff" stroke="black" stroke-width="2" d="M54.5,-120C54.5,-120 107.5,-120 107.5,-120 113.5,-120 119.5,-126 119.5,-132 119.5,-132 119.5,-160 119.5,-160 119.5,-166 113.5,-172 107.5,-172 107.5,-172 54.5,-172 54.5,-172 48.5,-172 42.5,-166 42.5,-160 42.5,-160 42.5,-132 42.5,-132 42.5,-126 48.5,-120 54.5,-120"/>
<text text-anchor="middle" x="81" y="-160.8" font-family="Helvetica,sans-Serif" font-weight="bold" font-size="9.00">diContainer</text>
</g>
<g id="clust6" class="cluster">
<title>cluster_server/repository</title>
<path fill="#ffffff" stroke="black" stroke-width="2" d="M173,-16C173,-16 219,-16 219,-16 225,-16 231,-22 231,-28 231,-28 231,-116 231,-116 231,-122 225,-128 219,-128 219,-128 173,-128 173,-128 167,-128 161,-122 161,-116 161,-116 161,-28 161,-28 161,-22 167,-16 173,-16"/>
<text text-anchor="middle" x="196" y="-116.8" font-family="Helvetica,sans-Serif" font-weight="bold" font-size="9.00">repository</text>
</g>
<g id="clust7" class="cluster">
<title>cluster_server/service</title>
<path fill="#ffffff" stroke="black" stroke-width="2" d="M173,-142C173,-142 330,-142 330,-142 336,-142 342,-148 342,-154 342,-154 342,-182 342,-182 342,-188 336,-194 330,-194 330,-194 173,-194 173,-194 167,-194 161,-188 161,-182 161,-182 161,-154 161,-154 161,-148 167,-142 173,-142"/>
<text text-anchor="middle" x="251.5" y="-182.8" font-family="Helvetica,sans-Serif" font-weight="bold" font-size="9.00">service</text>
</g>
<g id="clust8" class="cluster">
<title>cluster_server/storage</title>
<path fill="#ffffff" stroke="black" stroke-width="2" d="M173,-202C173,-202 219,-202 219,-202 225,-202 231,-208 231,-214 231,-214 231,-242 231,-242 231,-248 225,-254 219,-254 219,-254 173,-254 173,-254 167,-254 161,-248 161,-242 161,-242 161,-214 161,-214 161,-208 167,-202 173,-202"/>
<text text-anchor="middle" x="196" y="-242.8" font-family="Helvetica,sans-Serif" font-weight="bold" font-size="9.00">storage</text>
</g>
<!-- server/auth/index.ts -->
<g id="node1" class="node">
<title>server/auth/index.ts</title>
<g id="a_node1"><a xlink:href="server/auth/index.ts" xlink:title="index.ts">
<path fill="#ddfeff" stroke="black" d="M321,-75C321,-75 279,-75 279,-75 276,-75 273,-72 273,-69 273,-69 273,-63 273,-63 273,-60 276,-57 279,-57 279,-57 321,-57 321,-57 324,-57 327,-60 327,-63 327,-63 327,-69 327,-69 327,-72 324,-75 321,-75"/>
<text text-anchor="start" x="281.5" y="-63.8" font-family="Helvetica,sans-Serif" font-size="9.00">index.ts</text>
</a>
</g>
</g>
<!-- server/chat/chatSocketHandler.ts -->
<g id="node2" class="node">
<title>server/chat/chatSocketHandler.ts</title>
<g id="a_node2"><a xlink:href="server/chat/chatSocketHandler.ts" xlink:title="chatSocketHandler.ts">
<path fill="#ddfeff" stroke="black" d="M131,-298C131,-298 30,-298 30,-298 27,-298 24,-295 24,-292 24,-292 24,-286 24,-286 24,-283 27,-280 30,-280 30,-280 131,-280 131,-280 134,-280 137,-283 137,-286 137,-286 137,-292 137,-292 137,-295 134,-298 131,-298"/>
<text text-anchor="start" x="32" y="-286.8" font-family="Helvetica,sans-Serif" font-size="9.00">chatSocketHandler.ts</text>
</a>
</g>
</g>
<!-- server/chat/redisSingleton.ts -->
<g id="node3" class="node">
<title>server/chat/redisSingleton.ts</title>
<g id="a_node3"><a xlink:href="server/chat/redisSingleton.ts" xlink:title="redisSingleton.ts">
<path fill="#ddfeff" stroke="black" d="M236,-298C236,-298 156,-298 156,-298 153,-298 150,-295 150,-292 150,-292 150,-286 150,-286 150,-283 153,-280 156,-280 156,-280 236,-280 236,-280 239,-280 242,-283 242,-286 242,-286 242,-292 242,-292 242,-295 239,-298 236,-298"/>
<text text-anchor="start" x="158" y="-286.8" font-family="Helvetica,sans-Serif" font-size="9.00">redisSingleton.ts</text>
</a>
</g>
</g>
<!-- server/chat/chatSocketHandler.ts&#45;&gt;server/chat/redisSingleton.ts -->
<g id="edge1" class="edge">
<title>server/chat/chatSocketHandler.ts&#45;&gt;server/chat/redisSingleton.ts</title>
<path fill="none" stroke="#000000" stroke-width="2" stroke-opacity="0.200000" d="M137.25,-289C139.38,-289 141.52,-289 143.64,-289"/>
<polygon fill="#000000" fill-opacity="0.200000" stroke="#000000" stroke-width="2" stroke-opacity="0.200000" points="143.96,-291.1 149.96,-289 143.96,-286.9 143.96,-291.1"/>
</g>
<!-- server/control/interface.ts -->
<g id="node4" class="node">
<title>server/control/interface.ts</title>
<g id="a_node4"><a xlink:href="server/control/interface.ts" xlink:title="interface.ts">
<path fill="#ddfeff" stroke="black" d="M328,-250C328,-250 272,-250 272,-250 269,-250 266,-247 266,-244 266,-244 266,-238 266,-238 266,-235 269,-232 272,-232 272,-232 328,-232 328,-232 331,-232 334,-235 334,-238 334,-238 334,-244 334,-244 334,-247 331,-250 328,-250"/>
<text text-anchor="start" x="274" y="-238.8" font-family="Helvetica,sans-Serif" font-size="9.00">interface.ts</text>
</a>
</g>
</g>
<!-- server/diContainer/index.ts -->
<g id="node5" class="node">
<title>server/diContainer/index.ts</title>
<g id="a_node5"><a xlink:href="server/diContainer/index.ts" xlink:title="index.ts">
<path fill="#ddfeff" stroke="black" d="M101.5,-146C101.5,-146 59.5,-146 59.5,-146 56.5,-146 53.5,-143 53.5,-140 53.5,-140 53.5,-134 53.5,-134 53.5,-131 56.5,-128 59.5,-128 59.5,-128 101.5,-128 101.5,-128 104.5,-128 107.5,-131 107.5,-134 107.5,-134 107.5,-140 107.5,-140 107.5,-143 104.5,-146 101.5,-146"/>
<text text-anchor="start" x="62" y="-134.8" font-family="Helvetica,sans-Serif" font-size="9.00">index.ts</text>
</a>
</g>
</g>
<!-- server/diContainer/index.ts&#45;&gt;server/control/interface.ts -->
<g id="edge2" class="edge">
<title>server/diContainer/index.ts&#45;&gt;server/control/interface.ts</title>
<path fill="none" stroke="#000000" stroke-width="2" stroke-opacity="0.200000" d="M83.43,-146.11C88.95,-169.6 107.26,-232.19 150,-257 188.55,-279.38 242.24,-264.64 273.54,-252.44"/>
<polygon fill="#000000" fill-opacity="0.200000" stroke="#000000" stroke-width="2" stroke-opacity="0.200000" points="274.33,-254.38 279.11,-250.2 272.76,-250.49 274.33,-254.38"/>
</g>
<!-- server/repository/index.ts -->
<g id="node6" class="node">
<title>server/repository/index.ts</title>
<g id="a_node6"><a xlink:href="server/repository/index.ts" xlink:title="index.ts">
<path fill="#ddfeff" stroke="black" d="M217,-102C217,-102 175,-102 175,-102 172,-102 169,-99 169,-96 169,-96 169,-90 169,-90 169,-87 172,-84 175,-84 175,-84 217,-84 217,-84 220,-84 223,-87 223,-90 223,-90 223,-96 223,-96 223,-99 220,-102 217,-102"/>
<text text-anchor="start" x="177.5" y="-90.8" font-family="Helvetica,sans-Serif" font-size="9.00">index.ts</text>
</a>
</g>
</g>
<!-- server/diContainer/index.ts&#45;&gt;server/repository/index.ts -->
<g id="edge3" class="edge">
<title>server/diContainer/index.ts&#45;&gt;server/repository/index.ts</title>
<path fill="none" stroke="#000000" stroke-width="2" stroke-opacity="0.200000" d="M104.74,-127.99C122.37,-121.15 146.73,-111.71 165.7,-104.36"/>
<polygon fill="#000000" fill-opacity="0.200000" stroke="#000000" stroke-width="2" stroke-opacity="0.200000" points="166.56,-106.28 171.4,-102.15 165.05,-102.36 166.56,-106.28"/>
</g>
<!-- server/repository/post.ts -->
<g id="node7" class="node">
<title>server/repository/post.ts</title>
<g id="a_node7"><a xlink:href="server/repository/post.ts" xlink:title="post.ts">
<path fill="#ddfeff" stroke="black" d="M217,-72C217,-72 175,-72 175,-72 172,-72 169,-69 169,-66 169,-66 169,-60 169,-60 169,-57 172,-54 175,-54 175,-54 217,-54 217,-54 220,-54 223,-57 223,-60 223,-60 223,-66 223,-66 223,-69 220,-72 217,-72"/>
<text text-anchor="start" x="180.5" y="-60.8" font-family="Helvetica,sans-Serif" font-size="9.00">post.ts</text>
</a>
</g>
</g>
<!-- server/diContainer/index.ts&#45;&gt;server/repository/post.ts -->
<g id="edge4" class="edge">
<title>server/diContainer/index.ts&#45;&gt;server/repository/post.ts</title>
<path fill="none" stroke="#000000" stroke-width="2" stroke-opacity="0.200000" d="M89.94,-127.75C102.08,-114.93 125.7,-91.79 150,-78 154.03,-75.71 158.46,-73.71 162.92,-71.97"/>
<polygon fill="#000000" fill-opacity="0.200000" stroke="#000000" stroke-width="2" stroke-opacity="0.200000" points="163.65,-73.94 168.56,-69.91 162.2,-69.99 163.65,-73.94"/>
</g>
<!-- server/repository/user.ts -->
<g id="node8" class="node">
<title>server/repository/user.ts</title>
<g id="a_node8"><a xlink:href="server/repository/user.ts" xlink:title="user.ts">
<path fill="#ddfeff" stroke="black" d="M217,-42C217,-42 175,-42 175,-42 172,-42 169,-39 169,-36 169,-36 169,-30 169,-30 169,-27 172,-24 175,-24 175,-24 217,-24 217,-24 220,-24 223,-27 223,-30 223,-30 223,-36 223,-36 223,-39 220,-42 217,-42"/>
<text text-anchor="start" x="180.5" y="-30.8" font-family="Helvetica,sans-Serif" font-size="9.00">user.ts</text>
</a>
</g>
</g>
<!-- server/diContainer/index.ts&#45;&gt;server/repository/user.ts -->
<g id="edge5" class="edge">
<title>server/diContainer/index.ts&#45;&gt;server/repository/user.ts</title>
<path fill="none" stroke="#000000" stroke-width="2" stroke-opacity="0.200000" d="M86.18,-127.73C95.73,-109.73 119.18,-69.93 150,-48 153.96,-45.18 158.49,-42.86 163.12,-40.97"/>
<polygon fill="#000000" fill-opacity="0.200000" stroke="#000000" stroke-width="2" stroke-opacity="0.200000" points="164.1,-42.84 168.99,-38.78 162.63,-38.91 164.1,-42.84"/>
</g>
<!-- server/service/index.ts -->
<g id="node9" class="node">
<title>server/service/index.ts</title>
<g id="a_node9"><a xlink:href="server/service/index.ts" xlink:title="index.ts">
<path fill="#ddfeff" stroke="black" d="M217,-168C217,-168 175,-168 175,-168 172,-168 169,-165 169,-162 169,-162 169,-156 169,-156 169,-153 172,-150 175,-150 175,-150 217,-150 217,-150 220,-150 223,-153 223,-156 223,-156 223,-162 223,-162 223,-165 220,-168 217,-168"/>
<text text-anchor="start" x="177.5" y="-156.8" font-family="Helvetica,sans-Serif" font-size="9.00">index.ts</text>
</a>
</g>
</g>
<!-- server/diContainer/index.ts&#45;&gt;server/service/index.ts -->
<g id="edge6" class="edge">
<title>server/diContainer/index.ts&#45;&gt;server/service/index.ts</title>
<path fill="none" stroke="#000000" stroke-width="2" stroke-opacity="0.200000" d="M107.54,-142.05C123.86,-145.21 145.03,-149.31 162.45,-152.69"/>
<polygon fill="#000000" fill-opacity="0.200000" stroke="#000000" stroke-width="2" stroke-opacity="0.200000" points="162.4,-154.82 168.69,-153.9 163.2,-150.7 162.4,-154.82"/>
</g>
<!-- server/service/interface.ts -->
<g id="node10" class="node">
<title>server/service/interface.ts</title>
<g id="a_node10"><a xlink:href="server/service/interface.ts" xlink:title="interface.ts">
<path fill="#ddfeff" stroke="black" d="M328,-168C328,-168 272,-168 272,-168 269,-168 266,-165 266,-162 266,-162 266,-156 266,-156 266,-153 269,-150 272,-150 272,-150 328,-150 328,-150 331,-150 334,-153 334,-156 334,-156 334,-162 334,-162 334,-165 331,-168 328,-168"/>
<text text-anchor="start" x="274" y="-156.8" font-family="Helvetica,sans-Serif" font-size="9.00">interface.ts</text>
</a>
</g>
</g>
<!-- server/diContainer/index.ts&#45;&gt;server/service/interface.ts -->
<g id="edge7" class="edge">
<title>server/diContainer/index.ts&#45;&gt;server/service/interface.ts</title>
<path fill="none" stroke="#000000" stroke-width="2" stroke-opacity="0.200000" d="M107.7,-136.03C141.02,-135.27 200.22,-135.49 250,-144 255.92,-145.01 262.12,-146.53 268.05,-148.22"/>
<polygon fill="#000000" fill-opacity="0.200000" stroke="#000000" stroke-width="2" stroke-opacity="0.200000" points="267.52,-150.26 273.87,-149.96 268.72,-146.23 267.52,-150.26"/>
</g>
<!-- server/storage/index.ts -->
<g id="node11" class="node">
<title>server/storage/index.ts</title>
<g id="a_node11"><a xlink:href="server/storage/index.ts" xlink:title="index.ts">
<path fill="#ddfeff" stroke="black" d="M217,-228C217,-228 175,-228 175,-228 172,-228 169,-225 169,-222 169,-222 169,-216 169,-216 169,-213 172,-210 175,-210 175,-210 217,-210 217,-210 220,-210 223,-213 223,-216 223,-216 223,-222 223,-222 223,-225 220,-228 217,-228"/>
<text text-anchor="start" x="177.5" y="-216.8" font-family="Helvetica,sans-Serif" font-size="9.00">index.ts</text>
</a>
</g>
</g>
<!-- server/diContainer/index.ts&#45;&gt;server/storage/index.ts -->
<g id="edge8" class="edge">
<title>server/diContainer/index.ts&#45;&gt;server/storage/index.ts</title>
<path fill="none" stroke="#000000" stroke-width="2" stroke-opacity="0.200000" d="M90.6,-146.4C103.14,-159.01 126.83,-181.59 150,-197 155.54,-200.69 161.8,-204.14 167.84,-207.16"/>
<polygon fill="#000000" fill-opacity="0.200000" stroke="#000000" stroke-width="2" stroke-opacity="0.200000" points="166.99,-209.08 173.3,-209.81 168.82,-205.3 166.99,-209.08"/>
</g>
<!-- server/repository/index.ts&#45;&gt;server/service/interface.ts -->
<g id="edge9" class="edge">
<title>server/repository/index.ts&#45;&gt;server/service/interface.ts</title>
<path fill="none" stroke="#000000" stroke-width="2" stroke-opacity="0.200000" d="M211.18,-102.18C229.07,-113.75 259.9,-133.7 279.86,-146.62"/>
<polygon fill="#000000" fill-opacity="0.200000" stroke="#000000" stroke-width="2" stroke-opacity="0.200000" points="278.76,-148.4 284.94,-149.9 281.04,-144.88 278.76,-148.4"/>
</g>
<!-- server/repository/post.ts&#45;&gt;server/service/interface.ts -->
<g id="edge10" class="edge">
<title>server/repository/post.ts&#45;&gt;server/service/interface.ts</title>
<path fill="none" stroke="#000000" stroke-width="2" stroke-opacity="0.200000" d="M223.07,-65.17C232.61,-67.2 242.82,-70.98 250,-78 258.65,-86.45 252.53,-93.22 258,-104 265.69,-119.15 277.54,-134.5 286.53,-145.11"/>
<polygon fill="#000000" fill-opacity="0.200000" stroke="#000000" stroke-width="2" stroke-opacity="0.200000" points="285.17,-146.75 290.68,-149.92 288.35,-144.01 285.17,-146.75"/>
</g>
<!-- server/repository/user.ts&#45;&gt;server/auth/index.ts -->
<g id="edge11" class="edge">
<title>server/repository/user.ts&#45;&gt;server/auth/index.ts</title>
<path fill="none" stroke="#000000" stroke-width="2" stroke-opacity="0.200000" d="M223.27,-40.01C231.83,-42.41 241.36,-45.19 250,-48 256.34,-50.06 263.07,-52.42 269.46,-54.74"/>
<polygon fill="#000000" fill-opacity="0.200000" stroke="#000000" stroke-width="2" stroke-opacity="0.200000" points="268.85,-56.75 275.2,-56.84 270.29,-52.8 268.85,-56.75"/>
</g>
<!-- server/repository/user.ts&#45;&gt;server/service/interface.ts -->
<g id="edge12" class="edge">
<title>server/repository/user.ts&#45;&gt;server/service/interface.ts</title>
<path fill="none" stroke="#000000" stroke-width="2" stroke-opacity="0.200000" d="M223.12,-34.5C232.9,-36.41 243.27,-40.3 250,-48 266.55,-66.93 248.41,-80.76 258,-104 264.46,-119.66 276.4,-134.89 285.73,-145.34"/>
<polygon fill="#000000" fill-opacity="0.200000" stroke="#000000" stroke-width="2" stroke-opacity="0.200000" points="284.2,-146.79 289.81,-149.79 287.3,-143.95 284.2,-146.79"/>
</g>
<!-- server/service/index.ts&#45;&gt;server/auth/index.ts -->
<g id="edge13" class="edge">
<title>server/service/index.ts&#45;&gt;server/auth/index.ts</title>
<path fill="none" stroke="#000000" stroke-width="2" stroke-opacity="0.200000" d="M219.23,-149.94C229.27,-145.2 240.89,-138.76 250,-131 267.1,-116.44 281.85,-94.91 290.58,-80.67"/>
<polygon fill="#000000" fill-opacity="0.200000" stroke="#000000" stroke-width="2" stroke-opacity="0.200000" points="292.44,-81.65 293.73,-75.42 288.84,-79.49 292.44,-81.65"/>
</g>
<!-- server/service/index.ts&#45;&gt;server/control/interface.ts -->
<g id="edge14" class="edge">
<title>server/service/index.ts&#45;&gt;server/control/interface.ts</title>
<path fill="none" stroke="#000000" stroke-width="2" stroke-opacity="0.200000" d="M209.38,-168C220.22,-175.97 236.35,-188.02 250,-199 261.6,-208.33 274.35,-219.29 283.94,-227.67"/>
<polygon fill="#000000" fill-opacity="0.200000" stroke="#000000" stroke-width="2" stroke-opacity="0.200000" points="282.75,-229.42 288.64,-231.8 285.52,-226.26 282.75,-229.42"/>
</g>
<!-- server/service/index.ts&#45;&gt;server/service/interface.ts -->
<g id="edge15" class="edge">
<title>server/service/index.ts&#45;&gt;server/service/interface.ts</title>
<path fill="none" stroke="#000000" stroke-width="2" stroke-opacity="0.200000" d="M223,-159C234.06,-159 247.2,-159 259.42,-159"/>
<polygon fill="#000000" fill-opacity="0.200000" stroke="#000000" stroke-width="2" stroke-opacity="0.200000" points="259.71,-161.1 265.71,-159 259.71,-156.9 259.71,-161.1"/>
</g>
<!-- server/storage/index.ts&#45;&gt;server/service/interface.ts -->
<g id="edge16" class="edge">
<title>server/storage/index.ts&#45;&gt;server/service/interface.ts</title>
<path fill="none" stroke="#000000" stroke-width="2" stroke-opacity="0.200000" d="M222.73,-209.92C231.61,-206.37 241.47,-201.96 250,-197 262.36,-189.81 275.09,-179.85 284.47,-171.93"/>
<polygon fill="#000000" fill-opacity="0.200000" stroke="#000000" stroke-width="2" stroke-opacity="0.200000" points="285.87,-173.5 289.06,-168 283.14,-170.31 285.87,-173.5"/>
</g>
</g>
</svg>
