<?xml version="1.0" encoding="UTF-8" standalone="no"?>
<!DOCTYPE svg PUBLIC "-//W3C//DTD SVG 1.1//EN"
 "http://www.w3.org/Graphics/SVG/1.1/DTD/svg11.dtd">
<!-- Generated by graphviz version 2.43.0 (0)
 -->
<!-- Title: dependency&#45;cruiser output Pages: 1 -->
<svg width="366pt" height="370pt"
 viewBox="0.00 0.00 366.00 370.00" xmlns="http://www.w3.org/2000/svg" xmlns:xlink="http://www.w3.org/1999/xlink">
<g id="graph0" class="graph" transform="scale(1 1) rotate(0) translate(4 366)">
<title>dependency&#45;cruiser output</title>
<polygon fill="white" stroke="transparent" points="-4,4 -4,-366 362,-366 362,4 -4,4"/>
<g id="clust1" class="cluster">
<title>cluster_server</title>
<path fill="#ffffff" stroke="black" stroke-width="2" d="M20,-8C20,-8 338,-8 338,-8 344,-8 350,-14 350,-20 350,-20 350,-342 350,-342 350,-348 344,-354 338,-354 338,-354 20,-354 20,-354 14,-354 8,-348 8,-342 8,-342 8,-20 8,-20 8,-14 14,-8 20,-8"/>
<text text-anchor="middle" x="179" y="-342.8" font-family="Helvetica,sans-Serif" font-weight="bold" font-size="9.00">server</text>
</g>
<g id="clust2" class="cluster">
<title>cluster_server/chat</title>
<path fill="#ffffff" stroke="black" stroke-width="2" d="M28,-276C28,-276 238,-276 238,-276 244,-276 250,-282 250,-288 250,-288 250,-316 250,-316 250,-322 244,-328 238,-328 238,-328 28,-328 28,-328 22,-328 16,-322 16,-316 16,-316 16,-288 16,-288 16,-282 22,-276 28,-276"/>
<text text-anchor="middle" x="133" y="-316.8" font-family="Helvetica,sans-Serif" font-weight="bold" font-size="9.00">chat</text>
</g>
<g id="clust3" class="cluster">
<title>cluster_server/control</title>
<path fill="#ffffff" stroke="black" stroke-width="2" d="M270,-266C270,-266 330,-266 330,-266 336,-266 342,-272 342,-278 342,-278 342,-306 342,-306 342,-312 336,-318 330,-318 330,-318 270,-318 270,-318 264,-318 258,-312 258,-306 258,-306 258,-278 258,-278 258,-272 264,-266 270,-266"/>
<text text-anchor="middle" x="300" y="-306.8" font-family="Helvetica,sans-Serif" font-weight="bold" font-size="9.00">control</text>
</g>
<g id="clust4" class="cluster">
<title>cluster_server/diContainer</title>
<path fill="#ffffff" stroke="black" stroke-width="2" d="M54.5,-120C54.5,-120 107.5,-120 107.5,-120 113.5,-120 119.5,-126 119.5,-132 119.5,-132 119.5,-160 119.5,-160 119.5,-166 113.5,-172 107.5,-172 107.5,-172 54.5,-172 54.5,-172 48.5,-172 42.5,-166 42.5,-160 42.5,-160 42.5,-132 42.5,-132 42.5,-126 48.5,-120 54.5,-120"/>
<text text-anchor="middle" x="81" y="-160.8" font-family="Helvetica,sans-Serif" font-weight="bold" font-size="9.00">diContainer</text>
</g>
<g id="clust5" class="cluster">
<title>cluster_server/repository</title>
<path fill="#ffffff" stroke="black" stroke-width="2" d="M173,-16C173,-16 219,-16 219,-16 225,-16 231,-22 231,-28 231,-28 231,-116 231,-116 231,-122 225,-128 219,-128 219,-128 173,-128 173,-128 167,-128 161,-122 161,-116 161,-116 161,-28 161,-28 161,-22 167,-16 173,-16"/>
<text text-anchor="middle" x="196" y="-116.8" font-family="Helvetica,sans-Serif" font-weight="bold" font-size="9.00">repository</text>
</g>
<g id="clust6" class="cluster">
<title>cluster_server/service</title>
<path fill="#ffffff" stroke="black" stroke-width="2" d="M173,-206C173,-206 330,-206 330,-206 336,-206 342,-212 342,-218 342,-218 342,-246 342,-246 342,-252 336,-258 330,-258 330,-258 173,-258 173,-258 167,-258 161,-252 161,-246 161,-246 161,-218 161,-218 161,-212 167,-206 173,-206"/>
<text text-anchor="middle" x="251.5" y="-246.8" font-family="Helvetica,sans-Serif" font-weight="bold" font-size="9.00">service</text>
</g>
<g id="clust7" class="cluster">
<title>cluster_server/storage</title>
<path fill="#ffffff" stroke="black" stroke-width="2" d="M173,-146C173,-146 219,-146 219,-146 225,-146 231,-152 231,-158 231,-158 231,-186 231,-186 231,-192 225,-198 219,-198 219,-198 173,-198 173,-198 167,-198 161,-192 161,-186 161,-186 161,-158 161,-158 161,-152 167,-146 173,-146"/>
<text text-anchor="middle" x="196" y="-186.8" font-family="Helvetica,sans-Serif" font-weight="bold" font-size="9.00">storage</text>
</g>
<!-- server/chat/chatSocketHandler.ts -->
<g id="node1" class="node">
<title>server/chat/chatSocketHandler.ts</title>
<g id="a_node1"><a xlink:href="server/chat/chatSocketHandler.ts" xlink:title="chatSocketHandler.ts">
<path fill="#ddfeff" stroke="black" d="M131,-302C131,-302 30,-302 30,-302 27,-302 24,-299 24,-296 24,-296 24,-290 24,-290 24,-287 27,-284 30,-284 30,-284 131,-284 131,-284 134,-284 137,-287 137,-290 137,-290 137,-296 137,-296 137,-299 134,-302 131,-302"/>
<text text-anchor="start" x="32" y="-290.8" font-family="Helvetica,sans-Serif" font-size="9.00">chatSocketHandler.ts</text>
</a>
</g>
</g>
<!-- server/chat/redisSingleton.ts -->
<g id="node2" class="node">
<title>server/chat/redisSingleton.ts</title>
<g id="a_node2"><a xlink:href="server/chat/redisSingleton.ts" xlink:title="redisSingleton.ts">
<path fill="#ddfeff" stroke="black" d="M236,-302C236,-302 156,-302 156,-302 153,-302 150,-299 150,-296 150,-296 150,-290 150,-290 150,-287 153,-284 156,-284 156,-284 236,-284 236,-284 239,-284 242,-287 242,-290 242,-290 242,-296 242,-296 242,-299 239,-302 236,-302"/>
<text text-anchor="start" x="158" y="-290.8" font-family="Helvetica,sans-Serif" font-size="9.00">redisSingleton.ts</text>
</a>
</g>
</g>
<!-- server/chat/chatSocketHandler.ts&#45;&gt;server/chat/redisSingleton.ts -->
<g id="edge1" class="edge">
<title>server/chat/chatSocketHandler.ts&#45;&gt;server/chat/redisSingleton.ts</title>
<path fill="none" stroke="#000000" stroke-width="2" stroke-opacity="0.200000" d="M137.25,-293C139.38,-293 141.52,-293 143.64,-293"/>
<polygon fill="#000000" fill-opacity="0.200000" stroke="#000000" stroke-width="2" stroke-opacity="0.200000" points="143.96,-295.1 149.96,-293 143.96,-290.9 143.96,-295.1"/>
</g>
<!-- server/control/interface.ts -->
<g id="node3" class="node">
<title>server/control/interface.ts</title>
<g id="a_node3"><a xlink:href="server/control/interface.ts" xlink:title="interface.ts">
<path fill="#ddfeff" stroke="black" d="M328,-292C328,-292 272,-292 272,-292 269,-292 266,-289 266,-286 266,-286 266,-280 266,-280 266,-277 269,-274 272,-274 272,-274 328,-274 328,-274 331,-274 334,-277 334,-280 334,-280 334,-286 334,-286 334,-289 331,-292 328,-292"/>
<text text-anchor="start" x="274" y="-280.8" font-family="Helvetica,sans-Serif" font-size="9.00">interface.ts</text>
</a>
</g>
</g>
<!-- server/diContainer/index.ts -->
<g id="node4" class="node">
<title>server/diContainer/index.ts</title>
<g id="a_node4"><a xlink:href="server/diContainer/index.ts" xlink:title="index.ts">
<path fill="#ddfeff" stroke="black" d="M101.5,-146C101.5,-146 59.5,-146 59.5,-146 56.5,-146 53.5,-143 53.5,-140 53.5,-140 53.5,-134 53.5,-134 53.5,-131 56.5,-128 59.5,-128 59.5,-128 101.5,-128 101.5,-128 104.5,-128 107.5,-131 107.5,-134 107.5,-134 107.5,-140 107.5,-140 107.5,-143 104.5,-146 101.5,-146"/>
<text text-anchor="start" x="62" y="-134.8" font-family="Helvetica,sans-Serif" font-size="9.00">index.ts</text>
</a>
</g>
</g>
<!-- server/diContainer/index.ts&#45;&gt;server/control/interface.ts -->
<g id="edge2" class="edge">
<title>server/diContainer/index.ts&#45;&gt;server/control/interface.ts</title>
<path fill="none" stroke="#000000" stroke-width="2" stroke-opacity="0.200000" d="M83.51,-146.1C89.23,-169.65 107.98,-232.7 150,-261 168.56,-273.5 227.91,-269.43 250,-273 253.21,-273.52 256.54,-274.1 259.87,-274.72"/>
<polygon fill="#000000" fill-opacity="0.200000" stroke="#000000" stroke-width="2" stroke-opacity="0.200000" points="259.57,-276.8 265.86,-275.85 260.35,-272.67 259.57,-276.8"/>
</g>
<!-- server/repository/index.ts -->
<g id="node5" class="node">
<title>server/repository/index.ts</title>
<g id="a_node5"><a xlink:href="server/repository/index.ts" xlink:title="index.ts">
<path fill="#ddfeff" stroke="black" d="M217,-102C217,-102 175,-102 175,-102 172,-102 169,-99 169,-96 169,-96 169,-90 169,-90 169,-87 172,-84 175,-84 175,-84 217,-84 217,-84 220,-84 223,-87 223,-90 223,-90 223,-96 223,-96 223,-99 220,-102 217,-102"/>
<text text-anchor="start" x="177.5" y="-90.8" font-family="Helvetica,sans-Serif" font-size="9.00">index.ts</text>
</a>
</g>
</g>
<!-- server/diContainer/index.ts&#45;&gt;server/repository/index.ts -->
<g id="edge3" class="edge">
<title>server/diContainer/index.ts&#45;&gt;server/repository/index.ts</title>
<path fill="none" stroke="#000000" stroke-width="2" stroke-opacity="0.200000" d="M104.74,-127.99C122.37,-121.15 146.73,-111.71 165.7,-104.36"/>
<polygon fill="#000000" fill-opacity="0.200000" stroke="#000000" stroke-width="2" stroke-opacity="0.200000" points="166.56,-106.28 171.4,-102.15 165.05,-102.36 166.56,-106.28"/>
</g>
<!-- server/repository/post.ts -->
<g id="node6" class="node">
<title>server/repository/post.ts</title>
<g id="a_node6"><a xlink:href="server/repository/post.ts" xlink:title="post.ts">
<path fill="#ddfeff" stroke="black" d="M217,-72C217,-72 175,-72 175,-72 172,-72 169,-69 169,-66 169,-66 169,-60 169,-60 169,-57 172,-54 175,-54 175,-54 217,-54 217,-54 220,-54 223,-57 223,-60 223,-60 223,-66 223,-66 223,-69 220,-72 217,-72"/>
<text text-anchor="start" x="180.5" y="-60.8" font-family="Helvetica,sans-Serif" font-size="9.00">post.ts</text>
</a>
</g>
</g>
<!-- server/diContainer/index.ts&#45;&gt;server/repository/post.ts -->
<g id="edge4" class="edge">
<title>server/diContainer/index.ts&#45;&gt;server/repository/post.ts</title>
<path fill="none" stroke="#000000" stroke-width="2" stroke-opacity="0.200000" d="M89.94,-127.75C102.08,-114.93 125.7,-91.79 150,-78 154.03,-75.71 158.46,-73.71 162.92,-71.97"/>
<polygon fill="#000000" fill-opacity="0.200000" stroke="#000000" stroke-width="2" stroke-opacity="0.200000" points="163.65,-73.94 168.56,-69.91 162.2,-69.99 163.65,-73.94"/>
</g>
<!-- server/repository/user.ts -->
<g id="node7" class="node">
<title>server/repository/user.ts</title>
<g id="a_node7"><a xlink:href="server/repository/user.ts" xlink:title="user.ts">
<path fill="#ddfeff" stroke="black" d="M217,-42C217,-42 175,-42 175,-42 172,-42 169,-39 169,-36 169,-36 169,-30 169,-30 169,-27 172,-24 175,-24 175,-24 217,-24 217,-24 220,-24 223,-27 223,-30 223,-30 223,-36 223,-36 223,-39 220,-42 217,-42"/>
<text text-anchor="start" x="180.5" y="-30.8" font-family="Helvetica,sans-Serif" font-size="9.00">user.ts</text>
</a>
</g>
</g>
<!-- server/diContainer/index.ts&#45;&gt;server/repository/user.ts -->
<g id="edge5" class="edge">
<title>server/diContainer/index.ts&#45;&gt;server/repository/user.ts</title>
<path fill="none" stroke="#000000" stroke-width="2" stroke-opacity="0.200000" d="M86.18,-127.73C95.73,-109.73 119.18,-69.93 150,-48 153.96,-45.18 158.49,-42.86 163.12,-40.97"/>
<polygon fill="#000000" fill-opacity="0.200000" stroke="#000000" stroke-width="2" stroke-opacity="0.200000" points="164.1,-42.84 168.99,-38.78 162.63,-38.91 164.1,-42.84"/>
</g>
<!-- server/service/index.ts -->
<g id="node8" class="node">
<title>server/service/index.ts</title>
<g id="a_node8"><a xlink:href="server/service/index.ts" xlink:title="index.ts">
<path fill="#ddfeff" stroke="black" d="M217,-232C217,-232 175,-232 175,-232 172,-232 169,-229 169,-226 169,-226 169,-220 169,-220 169,-217 172,-214 175,-214 175,-214 217,-214 217,-214 220,-214 223,-217 223,-220 223,-220 223,-226 223,-226 223,-229 220,-232 217,-232"/>
<text text-anchor="start" x="177.5" y="-220.8" font-family="Helvetica,sans-Serif" font-size="9.00">index.ts</text>
</a>
</g>
</g>
<!-- server/diContainer/index.ts&#45;&gt;server/service/index.ts -->
<g id="edge6" class="edge">
<title>server/diContainer/index.ts&#45;&gt;server/service/index.ts</title>
<path fill="none" stroke="#000000" stroke-width="2" stroke-opacity="0.200000" d="M89.65,-146.18C101.81,-159.49 125.87,-184.38 150,-201 155.48,-204.78 161.71,-208.26 167.75,-211.29"/>
<polygon fill="#000000" fill-opacity="0.200000" stroke="#000000" stroke-width="2" stroke-opacity="0.200000" points="166.9,-213.21 173.21,-213.94 168.73,-209.43 166.9,-213.21"/>
</g>
<!-- server/service/interface.ts -->
<g id="node9" class="node">
<title>server/service/interface.ts</title>
<g id="a_node9"><a xlink:href="server/service/interface.ts" xlink:title="interface.ts">
<path fill="#ddfeff" stroke="black" d="M328,-232C328,-232 272,-232 272,-232 269,-232 266,-229 266,-226 266,-226 266,-220 266,-220 266,-217 269,-214 272,-214 272,-214 328,-214 328,-214 331,-214 334,-217 334,-220 334,-220 334,-226 334,-226 334,-229 331,-232 328,-232"/>
<text text-anchor="start" x="274" y="-220.8" font-family="Helvetica,sans-Serif" font-size="9.00">interface.ts</text>
</a>
</g>
</g>
<!-- server/diContainer/index.ts&#45;&gt;server/service/interface.ts -->
<g id="edge7" class="edge">
<title>server/diContainer/index.ts&#45;&gt;server/service/interface.ts</title>
<path fill="none" stroke="#000000" stroke-width="2" stroke-opacity="0.200000" d="M107.8,-134.98C149.03,-132.29 226.62,-129.35 250,-143 274.52,-157.31 288.36,-189.22 294.7,-208.13"/>
<polygon fill="#000000" fill-opacity="0.200000" stroke="#000000" stroke-width="2" stroke-opacity="0.200000" points="292.75,-208.92 296.57,-214 296.75,-207.64 292.75,-208.92"/>
</g>
<!-- server/storage/index.ts -->
<g id="node10" class="node">
<title>server/storage/index.ts</title>
<g id="a_node10"><a xlink:href="server/storage/index.ts" xlink:title="index.ts">
<path fill="#ddfeff" stroke="black" d="M217,-172C217,-172 175,-172 175,-172 172,-172 169,-169 169,-166 169,-166 169,-160 169,-160 169,-157 172,-154 175,-154 175,-154 217,-154 217,-154 220,-154 223,-157 223,-160 223,-160 223,-166 223,-166 223,-169 220,-172 217,-172"/>
<text text-anchor="start" x="177.5" y="-160.8" font-family="Helvetica,sans-Serif" font-size="9.00">index.ts</text>
</a>
</g>
</g>
<!-- server/diContainer/index.ts&#45;&gt;server/storage/index.ts -->
<g id="edge8" class="edge">
<title>server/diContainer/index.ts&#45;&gt;server/storage/index.ts</title>
<path fill="none" stroke="#000000" stroke-width="2" stroke-opacity="0.200000" d="M107.54,-142.96C123.86,-146.7 145.03,-151.55 162.45,-155.54"/>
<polygon fill="#000000" fill-opacity="0.200000" stroke="#000000" stroke-width="2" stroke-opacity="0.200000" points="162.37,-157.68 168.69,-156.97 163.31,-153.59 162.37,-157.68"/>
</g>
<!-- server/repository/index.ts&#45;&gt;server/service/interface.ts -->
<g id="edge9" class="edge">
<title>server/repository/index.ts&#45;&gt;server/service/interface.ts</title>
<path fill="none" stroke="#000000" stroke-width="2" stroke-opacity="0.200000" d="M212.33,-102.05C223.75,-109.34 239.16,-120.43 250,-133 270.04,-156.24 285.32,-189.03 293.16,-207.94"/>
<polygon fill="#000000" fill-opacity="0.200000" stroke="#000000" stroke-width="2" stroke-opacity="0.200000" points="291.33,-209.02 295.53,-213.79 295.22,-207.44 291.33,-209.02"/>
</g>
<!-- server/repository/post.ts&#45;&gt;server/service/interface.ts -->
<g id="edge10" class="edge">
<title>server/repository/post.ts&#45;&gt;server/service/interface.ts</title>
<path fill="none" stroke="#000000" stroke-width="2" stroke-opacity="0.200000" d="M223.24,-65.34C232.7,-67.39 242.79,-71.15 250,-78 287.23,-113.41 296.17,-178.06 298.32,-207.57"/>
<polygon fill="#000000" fill-opacity="0.200000" stroke="#000000" stroke-width="2" stroke-opacity="0.200000" points="296.23,-207.78 298.7,-213.64 300.42,-207.52 296.23,-207.78"/>
</g>
<!-- server/repository/user.ts&#45;&gt;server/service/interface.ts -->
<g id="edge11" class="edge">
<title>server/repository/user.ts&#45;&gt;server/service/interface.ts</title>
<path fill="none" stroke="#000000" stroke-width="2" stroke-opacity="0.200000" d="M223.17,-35.08C232.72,-37.09 242.91,-40.89 250,-48 294.49,-92.61 299.39,-174.1 299.39,-207.8"/>
<polygon fill="#000000" fill-opacity="0.200000" stroke="#000000" stroke-width="2" stroke-opacity="0.200000" points="297.29,-207.86 299.33,-213.87 301.49,-207.89 297.29,-207.86"/>
</g>
<!-- server/service/index.ts&#45;&gt;server/control/interface.ts -->
<g id="edge12" class="edge">
<title>server/service/index.ts&#45;&gt;server/control/interface.ts</title>
<path fill="none" stroke="#000000" stroke-width="2" stroke-opacity="0.200000" d="M210.9,-232.01C223.16,-239.88 241.59,-251.5 258,-261 263.66,-264.28 269.85,-267.68 275.65,-270.81"/>
<polygon fill="#000000" fill-opacity="0.200000" stroke="#000000" stroke-width="2" stroke-opacity="0.200000" points="275.02,-272.85 281.3,-273.83 277,-269.15 275.02,-272.85"/>
</g>
<!-- server/service/index.ts&#45;&gt;server/service/interface.ts -->
<g id="edge13" class="edge">
<title>server/service/index.ts&#45;&gt;server/service/interface.ts</title>
<path fill="none" stroke="#000000" stroke-width="2" stroke-opacity="0.200000" d="M223,-223C234.06,-223 247.2,-223 259.42,-223"/>
<polygon fill="#000000" fill-opacity="0.200000" stroke="#000000" stroke-width="2" stroke-opacity="0.200000" points="259.71,-225.1 265.71,-223 259.71,-220.9 259.71,-225.1"/>
</g>
<!-- server/storage/index.ts&#45;&gt;server/service/interface.ts -->
<g id="edge14" class="edge">
<title>server/storage/index.ts&#45;&gt;server/service/interface.ts</title>
<path fill="none" stroke="#000000" stroke-width="2" stroke-opacity="0.200000" d="M212.49,-172.11C230.12,-182.48 258.98,-199.46 278.47,-210.92"/>
<polygon fill="#000000" fill-opacity="0.200000" stroke="#000000" stroke-width="2" stroke-opacity="0.200000" points="277.46,-212.77 283.7,-214 279.59,-209.15 277.46,-212.77"/>
</g>
</g>
</svg>
