<?xml version="1.0" encoding="UTF-8" standalone="no"?>
<!DOCTYPE svg PUBLIC "-//W3C//DTD SVG 1.1//EN"
 "http://www.w3.org/Graphics/SVG/1.1/DTD/svg11.dtd">
<!-- Generated by graphviz version 2.43.0 (0)
 -->
<!-- Title: dependency&#45;cruiser output Pages: 1 -->
<svg width="366pt" height="314pt"
 viewBox="0.00 0.00 366.00 314.00" xmlns="http://www.w3.org/2000/svg" xmlns:xlink="http://www.w3.org/1999/xlink">
<g id="graph0" class="graph" transform="scale(1 1) rotate(0) translate(4 310)">
<title>dependency&#45;cruiser output</title>
<polygon fill="white" stroke="transparent" points="-4,4 -4,-310 362,-310 362,4 -4,4"/>
<g id="clust1" class="cluster">
<title>cluster_server</title>
<path fill="#ffffff" stroke="black" stroke-width="2" d="M20,-8C20,-8 338,-8 338,-8 344,-8 350,-14 350,-20 350,-20 350,-286 350,-286 350,-292 344,-298 338,-298 338,-298 20,-298 20,-298 14,-298 8,-292 8,-286 8,-286 8,-20 8,-20 8,-14 14,-8 20,-8"/>
<text text-anchor="middle" x="179" y="-286.8" font-family="Helvetica,sans-Serif" font-weight="bold" font-size="9.00">server</text>
</g>
<g id="clust2" class="cluster">
<title>cluster_server/chat</title>
<path fill="#ffffff" stroke="black" stroke-width="2" d="M28,-220C28,-220 238,-220 238,-220 244,-220 250,-226 250,-232 250,-232 250,-260 250,-260 250,-266 244,-272 238,-272 238,-272 28,-272 28,-272 22,-272 16,-266 16,-260 16,-260 16,-232 16,-232 16,-226 22,-220 28,-220"/>
<text text-anchor="middle" x="133" y="-260.8" font-family="Helvetica,sans-Serif" font-weight="bold" font-size="9.00">chat</text>
</g>
<g id="clust3" class="cluster">
<title>cluster_server/diContainer</title>
<path fill="#ffffff" stroke="black" stroke-width="2" d="M49,-55C49,-55 112,-55 112,-55 118,-55 124,-61 124,-67 124,-67 124,-125 124,-125 124,-131 118,-137 112,-137 112,-137 49,-137 49,-137 43,-137 37,-131 37,-125 37,-125 37,-67 37,-67 37,-61 43,-55 49,-55"/>
<text text-anchor="middle" x="80.5" y="-125.8" font-family="Helvetica,sans-Serif" font-weight="bold" font-size="9.00">diContainer</text>
</g>
<g id="clust4" class="cluster">
<title>cluster_server/repository</title>
<path fill="#ffffff" stroke="black" stroke-width="2" d="M173,-100C173,-100 219,-100 219,-100 225,-100 231,-106 231,-112 231,-112 231,-200 231,-200 231,-206 225,-212 219,-212 219,-212 173,-212 173,-212 167,-212 161,-206 161,-200 161,-200 161,-112 161,-112 161,-106 167,-100 173,-100"/>
<text text-anchor="middle" x="196" y="-200.8" font-family="Helvetica,sans-Serif" font-weight="bold" font-size="9.00">repository</text>
</g>
<g id="clust5" class="cluster">
<title>cluster_server/service</title>
<path fill="#ffffff" stroke="black" stroke-width="2" d="M270,-70C270,-70 330,-70 330,-70 336,-70 342,-76 342,-82 342,-82 342,-110 342,-110 342,-116 336,-122 330,-122 330,-122 270,-122 270,-122 264,-122 258,-116 258,-110 258,-110 258,-82 258,-82 258,-76 264,-70 270,-70"/>
<text text-anchor="middle" x="300" y="-110.8" font-family="Helvetica,sans-Serif" font-weight="bold" font-size="9.00">service</text>
</g>
<g id="clust6" class="cluster">
<title>cluster_server/storage</title>
<path fill="#ffffff" stroke="black" stroke-width="2" d="M173,-40C173,-40 219,-40 219,-40 225,-40 231,-46 231,-52 231,-52 231,-80 231,-80 231,-86 225,-92 219,-92 219,-92 173,-92 173,-92 167,-92 161,-86 161,-80 161,-80 161,-52 161,-52 161,-46 167,-40 173,-40"/>
<text text-anchor="middle" x="196" y="-80.8" font-family="Helvetica,sans-Serif" font-weight="bold" font-size="9.00">storage</text>
</g>
<g id="clust7" class="cluster">
<title>cluster_server/utils</title>
<path fill="#ffffff" stroke="black" stroke-width="2" d="M277,-160C277,-160 323,-160 323,-160 329,-160 335,-166 335,-172 335,-172 335,-200 335,-200 335,-206 329,-212 323,-212 323,-212 277,-212 277,-212 271,-212 265,-206 265,-200 265,-200 265,-172 265,-172 265,-166 271,-160 277,-160"/>
<text text-anchor="middle" x="300" y="-200.8" font-family="Helvetica,sans-Serif" font-weight="bold" font-size="9.00">utils</text>
</g>
<!-- server/chat/chatSocketHandler.ts -->
<g id="node1" class="node">
<title>server/chat/chatSocketHandler.ts</title>
<g id="a_node1"><a xlink:href="server/chat/chatSocketHandler.ts" xlink:title="chatSocketHandler.ts">
<path fill="#ddfeff" stroke="black" d="M131,-246C131,-246 30,-246 30,-246 27,-246 24,-243 24,-240 24,-240 24,-234 24,-234 24,-231 27,-228 30,-228 30,-228 131,-228 131,-228 134,-228 137,-231 137,-234 137,-234 137,-240 137,-240 137,-243 134,-246 131,-246"/>
<text text-anchor="start" x="32" y="-234.8" font-family="Helvetica,sans-Serif" font-size="9.00">chatSocketHandler.ts</text>
</a>
</g>
</g>
<!-- server/chat/redisSingleton.ts -->
<g id="node2" class="node">
<title>server/chat/redisSingleton.ts</title>
<g id="a_node2"><a xlink:href="server/chat/redisSingleton.ts" xlink:title="redisSingleton.ts">
<path fill="#ddfeff" stroke="black" d="M236,-246C236,-246 156,-246 156,-246 153,-246 150,-243 150,-240 150,-240 150,-234 150,-234 150,-231 153,-228 156,-228 156,-228 236,-228 236,-228 239,-228 242,-231 242,-234 242,-234 242,-240 242,-240 242,-243 239,-246 236,-246"/>
<text text-anchor="start" x="158" y="-234.8" font-family="Helvetica,sans-Serif" font-size="9.00">redisSingleton.ts</text>
</a>
</g>
</g>
<!-- server/chat/chatSocketHandler.ts&#45;&gt;server/chat/redisSingleton.ts -->
<g id="edge1" class="edge">
<title>server/chat/chatSocketHandler.ts&#45;&gt;server/chat/redisSingleton.ts</title>
<path fill="none" stroke="#000000" stroke-width="2" stroke-opacity="0.200000" d="M137.25,-237C139.38,-237 141.52,-237 143.64,-237"/>
<polygon fill="#000000" fill-opacity="0.200000" stroke="#000000" stroke-width="2" stroke-opacity="0.200000" points="143.96,-239.1 149.96,-237 143.96,-234.9 143.96,-239.1"/>
</g>
<!-- server/diContainer/repository.ts -->
<g id="node3" class="node">
<title>server/diContainer/repository.ts</title>
<g id="a_node3"><a xlink:href="server/diContainer/repository.ts" xlink:title="repository.ts">
<path fill="#ddfeff" stroke="black" d="M110,-111C110,-111 51,-111 51,-111 48,-111 45,-108 45,-105 45,-105 45,-99 45,-99 45,-96 48,-93 51,-93 51,-93 110,-93 110,-93 113,-93 116,-96 116,-99 116,-99 116,-105 116,-105 116,-108 113,-111 110,-111"/>
<text text-anchor="start" x="53" y="-99.8" font-family="Helvetica,sans-Serif" font-size="9.00">repository.ts</text>
</a>
</g>
</g>
<!-- server/repository/index.ts -->
<g id="node4" class="node">
<title>server/repository/index.ts</title>
<g id="a_node4"><a xlink:href="server/repository/index.ts" xlink:title="index.ts">
<path fill="#ddfeff" stroke="black" d="M217,-126C217,-126 175,-126 175,-126 172,-126 169,-123 169,-120 169,-120 169,-114 169,-114 169,-111 172,-108 175,-108 175,-108 217,-108 217,-108 220,-108 223,-111 223,-114 223,-114 223,-120 223,-120 223,-123 220,-126 217,-126"/>
<text text-anchor="start" x="177.5" y="-114.8" font-family="Helvetica,sans-Serif" font-size="9.00">index.ts</text>
</a>
</g>
</g>
<!-- server/diContainer/repository.ts&#45;&gt;server/repository/index.ts -->
<g id="edge2" class="edge">
<title>server/diContainer/repository.ts&#45;&gt;server/repository/index.ts</title>
<path fill="none" stroke="#000000" stroke-width="2" stroke-opacity="0.200000" d="M116.17,-106.58C131,-108.54 148.22,-110.82 162.77,-112.74"/>
<polygon fill="#000000" fill-opacity="0.200000" stroke="#000000" stroke-width="2" stroke-opacity="0.200000" points="162.6,-114.84 168.83,-113.54 163.15,-110.67 162.6,-114.84"/>
</g>
<!-- server/repository/post.ts -->
<g id="node5" class="node">
<title>server/repository/post.ts</title>
<g id="a_node5"><a xlink:href="server/repository/post.ts" xlink:title="post.ts">
<path fill="#ddfeff" stroke="black" d="M217,-156C217,-156 175,-156 175,-156 172,-156 169,-153 169,-150 169,-150 169,-144 169,-144 169,-141 172,-138 175,-138 175,-138 217,-138 217,-138 220,-138 223,-141 223,-144 223,-144 223,-150 223,-150 223,-153 220,-156 217,-156"/>
<text text-anchor="start" x="180.5" y="-144.8" font-family="Helvetica,sans-Serif" font-size="9.00">post.ts</text>
</a>
</g>
</g>
<!-- server/diContainer/repository.ts&#45;&gt;server/repository/post.ts -->
<g id="edge3" class="edge">
<title>server/diContainer/repository.ts&#45;&gt;server/repository/post.ts</title>
<path fill="none" stroke="#000000" stroke-width="2" stroke-opacity="0.200000" d="M100.79,-111.01C114.41,-117.23 133.16,-125.52 150,-132 154.12,-133.59 158.49,-135.17 162.82,-136.67"/>
<polygon fill="#000000" fill-opacity="0.200000" stroke="#000000" stroke-width="2" stroke-opacity="0.200000" points="162.33,-138.72 168.68,-138.67 163.68,-134.75 162.33,-138.72"/>
</g>
<!-- server/repository/user.ts -->
<g id="node6" class="node">
<title>server/repository/user.ts</title>
<g id="a_node6"><a xlink:href="server/repository/user.ts" xlink:title="user.ts">
<path fill="#ddfeff" stroke="black" d="M217,-186C217,-186 175,-186 175,-186 172,-186 169,-183 169,-180 169,-180 169,-174 169,-174 169,-171 172,-168 175,-168 175,-168 217,-168 217,-168 220,-168 223,-171 223,-174 223,-174 223,-180 223,-180 223,-183 220,-186 217,-186"/>
<text text-anchor="start" x="180.5" y="-174.8" font-family="Helvetica,sans-Serif" font-size="9.00">user.ts</text>
</a>
</g>
</g>
<!-- server/diContainer/repository.ts&#45;&gt;server/repository/user.ts -->
<g id="edge4" class="edge">
<title>server/diContainer/repository.ts&#45;&gt;server/repository/user.ts</title>
<path fill="none" stroke="#000000" stroke-width="2" stroke-opacity="0.200000" d="M89.9,-111.42C102.01,-124.46 125.59,-148 150,-162 154.02,-164.3 158.44,-166.32 162.9,-168.06"/>
<polygon fill="#000000" fill-opacity="0.200000" stroke="#000000" stroke-width="2" stroke-opacity="0.200000" points="162.19,-170.04 168.54,-170.13 163.63,-166.09 162.19,-170.04"/>
</g>
<!-- server/service/interface.ts -->
<g id="node7" class="node">
<title>server/service/interface.ts</title>
<g id="a_node7"><a xlink:href="server/service/interface.ts" xlink:title="interface.ts">
<path fill="#ddfeff" stroke="black" d="M328,-96C328,-96 272,-96 272,-96 269,-96 266,-93 266,-90 266,-90 266,-84 266,-84 266,-81 269,-78 272,-78 272,-78 328,-78 328,-78 331,-78 334,-81 334,-84 334,-84 334,-90 334,-90 334,-93 331,-96 328,-96"/>
<text text-anchor="start" x="274" y="-84.8" font-family="Helvetica,sans-Serif" font-size="9.00">interface.ts</text>
</a>
</g>
</g>
<!-- server/diContainer/repository.ts&#45;&gt;server/service/interface.ts -->
<g id="edge5" class="edge">
<title>server/diContainer/repository.ts&#45;&gt;server/service/interface.ts</title>
<path fill="none" stroke="#000000" stroke-width="2" stroke-opacity="0.200000" d="M116.16,-98.52C123.85,-96.27 131.38,-92.67 137,-87 153.16,-70.69 131.84,-51.05 150,-37 167.58,-23.41 229.51,-28.39 250,-37 267.1,-44.19 281.23,-60.58 289.85,-72.64"/>
<polygon fill="#000000" fill-opacity="0.200000" stroke="#000000" stroke-width="2" stroke-opacity="0.200000" points="288.29,-74.07 293.41,-77.83 291.75,-71.7 288.29,-74.07"/>
</g>
<!-- server/repository/index.ts&#45;&gt;server/service/interface.ts -->
<g id="edge8" class="edge">
<title>server/repository/index.ts&#45;&gt;server/service/interface.ts</title>
<path fill="none" stroke="#000000" stroke-width="2" stroke-opacity="0.200000" d="M223,-109.35C234.98,-105.83 249.4,-101.59 262.45,-97.75"/>
<polygon fill="#000000" fill-opacity="0.200000" stroke="#000000" stroke-width="2" stroke-opacity="0.200000" points="263.17,-99.73 268.33,-96.02 261.98,-95.7 263.17,-99.73"/>
</g>
<!-- server/repository/post.ts&#45;&gt;server/service/interface.ts -->
<g id="edge9" class="edge">
<title>server/repository/post.ts&#45;&gt;server/service/interface.ts</title>
<path fill="none" stroke="#000000" stroke-width="2" stroke-opacity="0.200000" d="M223.03,-142.2C231.94,-139.91 241.73,-136.62 250,-132 264.39,-123.97 277.95,-110.91 287.15,-100.93"/>
<polygon fill="#000000" fill-opacity="0.200000" stroke="#000000" stroke-width="2" stroke-opacity="0.200000" points="288.85,-102.18 291.3,-96.31 285.73,-99.37 288.85,-102.18"/>
</g>
<!-- server/repository/user.ts&#45;&gt;server/service/interface.ts -->
<g id="edge10" class="edge">
<title>server/repository/user.ts&#45;&gt;server/service/interface.ts</title>
<path fill="none" stroke="#000000" stroke-width="2" stroke-opacity="0.200000" d="M223.2,-173.45C232.33,-171.26 242.22,-167.72 250,-162 271.09,-146.49 285.63,-118.95 293.12,-101.91"/>
<polygon fill="#000000" fill-opacity="0.200000" stroke="#000000" stroke-width="2" stroke-opacity="0.200000" points="295.15,-102.49 295.55,-96.14 291.28,-100.85 295.15,-102.49"/>
</g>
<!-- server/utils/auth.ts -->
<g id="node10" class="node">
<title>server/utils/auth.ts</title>
<g id="a_node10"><a xlink:href="server/utils/auth.ts" xlink:title="auth.ts">
<path fill="#ddfeff" stroke="black" d="M321,-186C321,-186 279,-186 279,-186 276,-186 273,-183 273,-180 273,-180 273,-174 273,-174 273,-171 276,-168 279,-168 279,-168 321,-168 321,-168 324,-168 327,-171 327,-174 327,-174 327,-180 327,-180 327,-183 324,-186 321,-186"/>
<text text-anchor="start" x="283.5" y="-174.8" font-family="Helvetica,sans-Serif" font-size="9.00">auth.ts</text>
</a>
</g>
</g>
<!-- server/repository/user.ts&#45;&gt;server/utils/auth.ts -->
<g id="edge11" class="edge">
<title>server/repository/user.ts&#45;&gt;server/utils/auth.ts</title>
<path fill="none" stroke="#000000" stroke-width="2" stroke-opacity="0.200000" d="M223,-177C236.21,-177 252.38,-177 266.41,-177"/>
<polygon fill="#000000" fill-opacity="0.200000" stroke="#000000" stroke-width="2" stroke-opacity="0.200000" points="266.69,-179.1 272.69,-177 266.69,-174.9 266.69,-179.1"/>
</g>
<!-- server/diContainer/storage.ts -->
<g id="node8" class="node">
<title>server/diContainer/storage.ts</title>
<g id="a_node8"><a xlink:href="server/diContainer/storage.ts" xlink:title="storage.ts">
<path fill="#ddfeff" stroke="black" d="M105.5,-81C105.5,-81 55.5,-81 55.5,-81 52.5,-81 49.5,-78 49.5,-75 49.5,-75 49.5,-69 49.5,-69 49.5,-66 52.5,-63 55.5,-63 55.5,-63 105.5,-63 105.5,-63 108.5,-63 111.5,-66 111.5,-69 111.5,-69 111.5,-75 111.5,-75 111.5,-78 108.5,-81 105.5,-81"/>
<text text-anchor="start" x="57.5" y="-69.8" font-family="Helvetica,sans-Serif" font-size="9.00">storage.ts</text>
</a>
</g>
</g>
<!-- server/diContainer/storage.ts&#45;&gt;server/service/interface.ts -->
<g id="edge6" class="edge">
<title>server/diContainer/storage.ts&#45;&gt;server/service/interface.ts</title>
<path fill="none" stroke="#000000" stroke-width="2" stroke-opacity="0.200000" d="M91.17,-62.71C103.61,-51.48 126.43,-33.18 150,-26 192.52,-13.05 209.92,-6.79 250,-26 269.9,-35.54 284.27,-57.53 292.12,-72.33"/>
<polygon fill="#000000" fill-opacity="0.200000" stroke="#000000" stroke-width="2" stroke-opacity="0.200000" points="290.31,-73.4 294.9,-77.8 294.05,-71.5 290.31,-73.4"/>
</g>
<!-- server/storage/index.ts -->
<g id="node9" class="node">
<title>server/storage/index.ts</title>
<g id="a_node9"><a xlink:href="server/storage/index.ts" xlink:title="index.ts">
<path fill="#ddfeff" stroke="black" d="M217,-66C217,-66 175,-66 175,-66 172,-66 169,-63 169,-60 169,-60 169,-54 169,-54 169,-51 172,-48 175,-48 175,-48 217,-48 217,-48 220,-48 223,-51 223,-54 223,-54 223,-60 223,-60 223,-63 220,-66 217,-66"/>
<text text-anchor="start" x="177.5" y="-54.8" font-family="Helvetica,sans-Serif" font-size="9.00">index.ts</text>
</a>
</g>
</g>
<!-- server/diContainer/storage.ts&#45;&gt;server/storage/index.ts -->
<g id="edge7" class="edge">
<title>server/diContainer/storage.ts&#45;&gt;server/storage/index.ts</title>
<path fill="none" stroke="#000000" stroke-width="2" stroke-opacity="0.200000" d="M111.62,-68.02C127.39,-65.94 146.71,-63.38 162.78,-61.26"/>
<polygon fill="#000000" fill-opacity="0.200000" stroke="#000000" stroke-width="2" stroke-opacity="0.200000" points="163.31,-63.31 168.99,-60.44 162.76,-59.14 163.31,-63.31"/>
</g>
<!-- server/storage/index.ts&#45;&gt;server/service/interface.ts -->
<g id="edge12" class="edge">
<title>server/storage/index.ts&#45;&gt;server/service/interface.ts</title>
<path fill="none" stroke="#000000" stroke-width="2" stroke-opacity="0.200000" d="M223,-64.65C234.98,-68.17 249.4,-72.41 262.45,-76.25"/>
<polygon fill="#000000" fill-opacity="0.200000" stroke="#000000" stroke-width="2" stroke-opacity="0.200000" points="261.98,-78.3 268.33,-77.98 263.17,-74.27 261.98,-78.3"/>
</g>
</g>
</svg>
